<svg height="1632pt" preserveAspectRatio="xMidYMid meet" viewBox="0 0 1632 1632" width="1632pt" xmlns="http://www.w3.org/2000/svg"><g transform="matrix(.1 0 0 -.1 0 1632)"><path d="m14118 14079c-9-5-15-16-12-24 4-8 10-12 15-9s6-2 3-11c-6-14-8-14-20 2-10 15-15 16-26 5s-10-14 2-22c10-7 11-10 3-10-7 0-22-9-32-19-15-15-16-22-7-32s7-10-6 0c-14 10-18 11-18 1 0-9-4-9-13-2-9 8-17 8-27 0-12-8-12-9 3-4 9 3 17 1 17-4 0-17-19-21-42-10-21 11-21 10 2-12 14-12 19-18 11-13-12 8-13 6-8-7 3-10 1-20-5-24s-8-3-4 4c3 6 2 13-4 17-5 3-10 1-10-5s-5-8-12-3c-7 4-5-5 4-19 13-19 15-29 6-34-7-4-8-3-4 5 14 22-26 25-44 3-10-12-21-18-25-14-5 4-5 1-1-6s12-10 17-7c5 4 9 1 9-4 0-14-6-14-33 0l-22 12 20-23 20-23-25 13-25 13 20-23 20-23-22 12c-13 6-23 7-23 2s-10-7-22-5c-21 4-20 3 2-6 23-10 24-12 7-21-14-8-15-14-7-24s8-15-1-21c-7-4-9-3-5 4 3 6-2 16-13 22-22 11-28 5-25-27 0-12-3-20-8-17-4 3-6 9-3 14s2 11-3 14c-13 8-11-27 2-43 9-12 8-13-4-6-28 18-43 15-26-4 14-15 14-18 1-18-8 0-12 4-9 9 3 4 0 8-5 8-6 0-11-6-11-13 0-8-10-19-22-25-13-6-17-11-10-11 7-1 10-6 7-11-5-8-12-7-23 2-12 10-14 10-8 1 4-8 2-13-8-13-8 0-18-4-21-10-4-6 1-7 12-3 15 6 16 4 6-9-7-8-10-18-6-21 3-4 4-7 0-7-3 0-14 8-23 18-17 16-18 16-11 0 3-10 2-18-4-18s-7-5-3-12c5-7 2-9-8-6-8 4-21 2-29-4-11-8-11-9 3-4 10 3 20 1 23-4s-6-12-20-16c-20-5-23-9-15-19 9-11 6-12-11-8-19 5-21 3-17-15 4-16 2-19-10-15-10 4-13 2-8-5 4-7 1-13-8-13-30-3-34-4-43-13-4-5-3-6 3-3 7 4 14 1 17-7 4-9 0-12-13-9-12 3-20-2-25-17s-10-18-19-11-12 3-11-17c0-20-4-26-17-24-10 2-18-2-18-8 0-5 6-10 13-11 6 0 2-4-10-9-13-5-21-15-19-22 1-7 1-10-1-5-7 11-33 8-33-4 0-5 6-7 13-3s9 3 4-2c-8-9-12-10-38-13-6 0-9-8-5-16 3-8 1-15-5-15s-7-4-4-10c3-5 1-10-5-10-7 0-9 9-5 23 5 19 5 20-5 4-6-9-17-14-23-10-7 3-4-3 6-14 11-13 14-23 8-27-5-4-13 0-18 8-7 12-10 12-23-2s-12-15 2-10c9 4 18 1 21-6 4-9-2-11-19-8-13 2-24 0-24-7 0-5 6-9 13-7 6 1 9 1 4-1-4-3-4-10 0-16 3-7-3-4-15 6-20 18-26 7-10-19 5-7-6-9-30-7-20 1-32-1-25-5 20-13 4-62-20-62-7 0-4 5 6 11 9 6 15 14 12 19s-14 2-24-8c-11-11-15-21-9-29 5-7 5-14-1-17-5-4-13 0-18 8-7 12-10 12-23-2s-12-15 2-10c9 4 18 1 21-6 4-9-2-12-18-9-19 4-22 1-20-21 2-14-2-29-7-33-6-3-8-1-5 4 4 6 0 14-9 17-11 4-15 2-11-8 3-8-1-17-9-20-9-3-13-10-10-15s-3-7-14-4c-12 3-20 0-20-6 0-7-5-9-11-5-8 4-8 0 0-15 14-25 8-27-14-5-15 16-16 16-13-1 2-10-3-20-11-23-9-3-11 0-6 8 6 9 4 11-4 5-9-5-10-10-2-18 17-17 13-29-9-22-16 5-19 3-13-12 3-10 11-25 17-33 8-12 7-13-3-3-22 19-43 5-30-20 10-21 10-21-6-2-15 19-16 18-44-12-23-25-31-29-42-20-7 7-5 2 4-10 11-12 14-23 8-27-5-4-12-2-16 4-4 7-12 7-24 0-10-5-22-6-26-2-5 4-5 1-1-6 5-9 12-9 27-2 11 6 19 7 19 1 0-5-7-11-15-15-9-3-12-12-8-23 7-17 6-17-11 0-19 18-27 21-25 10 4-22-3-32-16-27-8 4-15 1-15-6 0-6-4-8-10-5-6 4-7-1-3-11 4-11 8-13 11-6 2 7 9 9 14 6 6-4 8-2 5 4-5 6 1 8 14 5 19-5 18-7-11-19-18-8-36-11-41-8s-9 0-9-6c0-8-6-8-22 0-21 10-22 10-5-4 11-8 28-13 38-11 11 2 17 0 14-6-4-5-11-7-16-4-5 4-12-1-15-9-3-9-11-13-16-10-6 4-5 10 3 16 11 8 11 9-1 5-16-5-16-9-4-42l7-20-16 20c-14 19-16 19-22 3-4-10-11-18-16-18-4 0-6 8-2 18 3 9 3 14-1 11-4-4-9-16-11-28-3-19-1-21 18-16 17 5 19 4 7-4-8-6-25-11-37-11-13 0-23-4-23-10 0-5-8-7-17-4-15 5-15 4-3-4 9-7 18-8 26-1s14 6 19-1c4-6 1-9-6-8-7 2-13-2-14-9 0-6-4-15-9-20-5-4-6-3-3 3 4 7-2 14-13 17-17 4-18 2-9-14 5-11 6-18 2-17-4 2-18-7-31-20-20-20-26-21-40-10-9 7-13 8-9 2 8-14-16-37-29-26-4 4-2-1 5-10 14-19 26-25 16-8-4 6 1 7 11 3 15-5 15-7 0-15-9-5-20-7-25-3-5 3-12 1-16-5-3-5 0-10 7-11 7 0 4-4-7-8-11-5-25-6-30-2-6 3 1-4 15-17l25-24-34 17c-18 9-31 13-28 8s-4-18-15-28c-20-16-20-19-4-30 15-11 15-13 1-19-9-3-14-2-11 3s-3 11-14 14c-19 5-19 4-4-27l16-31-21 23c-12 12-25 22-28 22-4 0-2-5 4-11 9-9 8-16-3-27-13-12-13-17-2-24 8-5 3-6-14-2-21 5-28 2-28-9 0-8 3-17 8-20 4-2 2-2-5-1-14 3-53-29-53-45 0-6-5-11-11-11-5 0-8 4-5 8 3 5-1 9-9 9-13 0-12-4 1-26 17-26 17-26-3-8-19 17-33 14-33-7 0-6 4-5 9 3 6 9 8 4 8-17-1-17-5-28-10-25-4 2-5 8-2 13 3 4-4 10-15 13-16 4-18 2-10-13 7-13 7-21 0-25-6-4-7-12-3-18 4-7-1-6-11 2-13 11-19 12-29 2-7-7-7-11-2-9 9 3 15-4 15-17 0-3-9-1-20 5s-17 16-14 22c4 6 3 8-3 5-5-3-8-20-5-37 3-19 0-30-7-30s-9-5-5-12c4-6 3-8-4-4-6 3-13 2-17-4-3-5-15-10-26-10-10 0-19-5-19-11 0-8-6-7-17 2-16 13-17 12-4-3 7-10 18-15 25-11 24 16 36 12 26-8-13-24-22-25-13-1 6 15 5 15-10 4-9-8-22-10-28-6-8 5-9 3-4-6 6-10 4-12-8-7-11 4-14 2-10-8 3-8 9-13 13-10 5 3 12 1 15-5 4-6 1-9-7-8-7 2-12-3-10-9 3-18-15-16-22 3-4 10-2 13 6 8 7-4 8-3 4 5-4 6-12 9-17 5-5-3-6-10-3-16 5-7 1-9-8-5-12 4-15 0-13-19 3-27-26-54-57-54-9 0-20-5-24-12-5-7-2-9 8-6 8 4 21 2 29-4 11-8 10-9-3-4-10 3-18 1-18-5s-6-6-18 0c-14 7-19 6-19-4 0-8 3-12 7-10 3 2 12 0 20-5 10-7 4-9-21-7-23 2-36-1-36-9 0-7 7-10 16-7 12 3 12 2-2-7-9-6-23-8-30-4-8 5-7 2 2-9 12-15 12-17-3-11-12 5-16 0-16-17 0-22 0-22-15-3-14 18-15 17-5-8 11-32 0-43-44-44-17 0-32-6-34-14-3-8 1-11 10-8 8 4 21 2 29-4 11-8 11-9-3-5-22 8-30-3-16-22 8-10 4-9-10 3-12 11-25 16-29 13-3-4-1-7 5-7 7 0 12-4 12-10 0-5-7-6-17-3-11 4-14 3-9-5 12-20-3-33-24-22-15 8-17 7-13-13 3-12 11-29 17-37 10-13 9-13-7 0-17 12-20 12-28-3-6-9-19-21-29-27-16-8-18-8-14 5 4 8 1 15-6 15-6 0-9-4-5-9 3-6-3-14-12-20-10-6-13-11-8-11 14 0 16-38 3-46-7-4-8-2-4 4 12 19-3 35-20 21-10-8-11-16-4-29 9-17 7-18-20-10-22 6-32 4-42-8-11-15-11-15 3-4 14 10 18 10 23-3 3-9 0-15-9-15-8 0-15-4-15-10 0-5-3-9-7-8-5 1-18-3-31-10-18-10-20-17-12-32 16-30 12-35-9-11-17 20-19 20-27 4-4-10-8-30-9-45s-5-31-10-35c-4-5-5-2-1 5 4 6 2 12-4 12s-9 4-6 8c3 5-1 9-9 9s-15-4-15-9c0-4 4-8 9-8 13 0 6-35-7-36-7-1-19-2-28-3-8 0-13-5-9-11 3-5 13-7 23-4 14 5 14 4 3-4-10-7-21-7-32-1-22 12-39 12-20 0 12-8 12-12-2-25-9-9-14-26-12-38 4-20 4-20-22 3-14 13-23 19-20 13 6-11-14-37-24-31-2 1 2-4 10-10 13-11 12-13-5-13-19-1-19-1 0-15 23-17 14-20-15-4-11 5-16 15-13 21 5 7 2 8-5 4-9-6-8-13 6-28 18-21 18-21-4-9-13 6-24 9-24 6-1-3-2-10-3-15-1-14-28-30-38-24-4 3-8 0-8-5 0-15 12-14 38 5 12 8 19 20 16 26-5 7-2 8 5 4 9-6 9-12-3-25-11-12-13-21-6-29 7-9 7-9-2-2-15 12-31 13-24 1 3-5-1-12-10-15-10-4-13-2-8 6 4 7 3 8-5 4-6-4-20-2-29 6-15 12-16 11-4-4 15-19 7-42-11-32-7 3-3-2 7-10 22-18 14-21-13-7-13 7-18 6-18-4 0-8 4-12 8-9 4 2 11-1 15-7 5-8 3-9-6-4-10 6-12 4-7-9 4-10 3-15-3-11-6 3-10 1-10-5 0-8-6-8-20 0-23 13-22 14-24-28-1-17-6-32-12-31-5 0-8 8-6 17 2 15 1 15-8-1-6-9-16-14-22-11-7 5-8 2-3-6 6-10 4-12-8-7-11 4-15 1-12-13 2-10-3-26-11-37-9-10-13-12-9-5 3 6 1 12-4 12-6 0-11-8-11-19 0-10-8-25-17-32-16-13-17-12-4 4 8 10 9 17 3 17-16 0-26-41-12-50 6-4-6-7-27-6-27 1-38-3-38-14-1-8-7-14-14-12-7 1-10-2-6-8 5-8 11-8 21 1 7 6 11 16 7 23-4 6 1 5 10-3 18-14 24-26 8-17-12 8-33-19-23-29 4-4-3-3-14 3-17 9-24 8-33-2-9-11-9-16 0-22 8-5 9-3 4 6-6 9-4 11 5 5s11-4 5 5c-5 9-4 11 4 6 17-11-6-37-25-29-8 3-14 1-14-5s6-13 13-15c8-4 7-6-4-6-8-1-20 4-26 10-8 8-13 7-18-2-5-8-4-10 3-5 21 13 13-22-8-37-11-8-17-16-14-20 3-3-3-3-15 0s-21 1-21-6c0-5-8-8-17-4-15 5-15 3 2-11 20-17 20-17-2-13-13 3-26 0-30-5-3-7-1-8 5-4 7 4 10-1 9-14s-5-16-11-10-15 10-20 10c-7 0-8-3-1-8 6-4 17-16 25-27 14-18 14-19-1-7-13 10-18 10-28-1-6-8-7-17-3-22 4-4-4-4-17 0-14 4-21 3-18-3 4-5-4-8-17-7-14 2-23-2-23-11 0-10 4-11 13-3 8 7 14 6 20-2 5-8 3-9-6-4-10 6-12 4-6-11 4-10 4-15 0-11s-14 1-22-6c-9-6-13-7-10-2 4 6 2 17-3 25-9 13-10 13-8 0 3-29-1-41-12-34-7 4-10 1-7-7s11-13 17-11c7 1 10-2 6-8-3-6-11-8-16-5-17 11-50 14-44 4 4-5 10-7 15-4s12 0 15-6c11-18 1-19-29-4-25 14-27 13-16 0s8-19-11-17c-3 1-6-5-6-13s5-11 10-8c6 4 7 1 3-6-5-7-14-10-22-7s-11 0-7-9c3-8 10-12 16-8 5 3 7 1 3-5-4-7-17-8-34-2-21 5-29 4-29-5 0-7 6-11 12-9 6 3 12-2 12-9 0-15-14-17-34-4-6 4-15 2-19-4-4-7-3-10 2-7s14 0 21-7c9-10 9-14-1-18-8-3-18-1-23 4-6 6-16 2-28-11-18-20-18-21 1-35 19-15 19-15 0-8-13 4-17 3-12-5s2-10-8-6c-9 3-13 11-9 17 3 6 1 7-6 3-8-5-9-12-2-20s4-12-10-13c-12-1-17 3-13 9s3 8-3 5c-5-3-8-22-7-42 3-32 2-34-12-20-9 8-21 15-27 15-7 0-6-4 3-10 14-9 13-11-9-14-5 0-13-5-18-10s-3-6 5-2c6 4 12 2 12-3 0-6-4-11-10-11-5 0-10-5-10-11 0-5 4-8 8-5 5 3 9-1 9-8 0-11-4-12-17-3-23 14-51 2-44-18 3-8 11-12 17-8 5 3 7 1 4-4-4-6-21-10-38-9-16 1-33-2-36-7-3-6-1-7 5-3 7 4 12 2 12-4s4-9 8-6c5 3 9-1 9-9 0-10-4-12-12-5-6 5-17 5-25 0s-17-7-21-4c-4 2-11-1-15-7-4-8-3-9 4-5s12 2 12-5c0-9 3-9 14 0s16 9 22 0c4-8 3-9-4-5s-12 2-12-4-6-10-12-9c-27 3-39-1-32-13 5-8 2-9-9-5-21 8-21 3-3-16 13-13 12-14-9-14-17 0-22 4-18 16 4 13 3 13-5 2-6-8-8-20-5-28 6-15-17-14-28 0-3 5-9 1-12-8-4-9-3-13 3-10s10 1 10-5 5-8 10-5c18 11 11-3-13-27-27-26-57-35-57-17 0 7-2 10-5 7-10-9 7-38 18-31 5 3 7 1 4-4-4-6-19-10-35-9-24 2-27-2-27-28 0-20-5-30-18-32-9-1-15 2-11 7 3 5 9 7 13 5 4-3 7 4 8 14 1 16 0 16-20-4-22-21-22-21-2-33 17-10 15-11-17-8-21 2-40 0-43-5s3-7 14-5c18 3 19 1 9-15-10-15-15-17-27-7s-13 9-3-10c9-16 9-24 0-29-6-4-8-3-5 3 4 6 0 16-8 23-13 11-14 10-9-5 6-14 4-16-6-10s-11 4-4-6c17-28 12-36-22-34-20 2-32-2-31-8s-3-11-10-12c-6 0-15-4-20-9-5-6-2-6 6-1 11 6 13 4 7-11-4-12 3-8 19 11l26 30-23-37c-12-20-25-35-27-32-2 2-11-2-19-9-10-7-13-8-9-1s-1 18-11 25c-15 13-16 12-3-3 7-10 10-18 6-18s-1-7 6-17c13-15 12-15-8-5-15 8-24 9-28 2-4-6-3-10 2-9 23 4 25-3 5-17-12-8-19-20-16-26 4-5-4-4-17 3-22 11-23 11-10-5 8-9 11-20 7-23-4-4-11-1-16 7-6 9-10 10-10 3 0-6-10-9-22-7-16 3-14 1 6-7 21-9 25-14 15-20-8-5-18-9-24-9-5 0-3 5 5 10s10 10 4 10c-19 0-24-13-11-28 11-13 9-14-13-2s-24 12-12-3c11-13 10-16-6-21-11-4-26-4-35-1-8 4-18 2-22-4-4-7 0-8 11-4 12 4 15 2 12-8-3-8-11-13-17-11-9 2-9-3-1-17 12-23 5-29-31-27-14 1-26-4-26-10 0-7 7-10 16-7 12 3 11 2-2-7-9-6-15-15-12-20s0-12-6-16c-7-4-9-3-5 4 3 6 2 13-4 17-9 5-15-15-11-37 0-5-4-8-10-8-5 0-7-5-3-12s3-8-4-4c-9 5-9 13-2 26 6 10 6 21 2 24-8 5-10-1-14-43-2-16-5-18-17-8s-13 9-6-2c6-11 4-13-10-7-16 6-16 4-4-11 9-11 10-14 2-9-13 7-57-17-48-26 3-3 8-15 10-28 3-17 1-20-9-11-11 9-18 8-30-4-17-18-12-40 6-29 6 4 8 3 5-3-3-5-24-9-45-9-37 1-39 0-37-26 2-24 0-26-16-18-23 13-39 12-17-1 10-5 15-16 11-25-5-12-7-12-20 3-8 10-12 13-9 6 4-6 0-14-6-16-10-4-10-6 0-6 6-1 12-5 12-11 0-14-27-12-34 3-3 6-4 1-3-12 1-14-4-26-13-28-12-4-12-3-1 5 9 7 10 12 2 16-7 5-14-4-17-23-4-17-13-31-21-31s-11-5-7-12c5-7 3-8-6-3-10 6-12 4-6-10 5-15 4-16-9-5s-14 10-10-3c8-20-15-34-26-16-7 11-9 10-9-4 0-10-4-15-10-12-5 3-10 1-10-5 0-7 9-9 23-5 21 6 21 5 2-6-11-7-25-20-32-28-7-9-13-12-13-7 0 6-7 1-16-10-14-18-15-18-10 6 5 23 5 23-7-3-7-15-16-24-20-21-4 4-7 2-7-5 0-6 7-11 16-9 10 2 18-3 20-10 1-7 0-8-2-3-8 15-34 1-35-18-1-9-4-6-9 9l-8 25-2-25c-1-14-2-28-1-32 0-5-6-8-15-8-8 0-12 5-9 10 3 6 1 10-4 10-15 0-14-13 2-29 10-11 9-13-5-8-11 4-19 0-23-14-4-10-11-19-17-19s-6 6 2 15c9 10 9 15 1 15-6 0-11-5-11-11 0-5-6-7-12-3-7 4-5-2 5-13 16-18 16-21 2-27-9-3-14-2-11 3s-2 15-12 22c-15 12-16 12-6-1 7-9 8-23 3-35-4-11-8-15-9-10-1 6-5 0-11-13-7-18-14-22-31-17-23 7-23 7-3-10 11-9 15-14 9-11-7 3-14-1-18-9-3-8-11-15-18-15-9 0-9 3 2 10 12 7 12 11 2 20-6 5-10 7-7 4 3-4 0-13-6-21-6-7-8-13-3-13s2-5-6-11c-12-8-10-9 7-4 12 3 24 2 26-2 3-4-7-9-21-10-15 0-30 4-34 10-4 7-6-5-4-25 2-21 0-35-5-32s-7 9-4 14 1 11-3 14c-5 3-8-13-8-36 1-22-5-48-12-57s-11-11-8-5c3 7-1 14-9 17-9 4-12 1-8-9 3-8-4-25-16-38-12-12-18-26-14-30 5-4 3-6-2-4-13 4-55-38-47-47 4-3-1-3-11 1-9 3-14 11-10 18 3 6-3 3-15-7-12-11-26-16-33-11-8 5-10 3-5-5 5-7 14-10 21-7 7 2 12-1 11-7-2-17-29-54-41-57-30-8-35-13-25-25 8-9 4-12-16-9-17 1-24-2-21-10 3-6-4-13-14-13-12-1-17 3-13 10s3 8-2 4c-5-5-10-13-10-18-1-5-2-15-3-21-3-20-41-62-49-54-4 4 4 17 18 28l25 20-25-15c-14-8-25-24-24-35 0-11-9-25-20-32-17-10-19-10-8 1 6 7 12 18 12 24 0 5-5 2-11-8-6-9-15-14-21-11-7 4-8 2-4-5 4-6 2-18-4-26s-9-19-5-25 1-9-7-8c-7 2-12-4-10-12s1-12-3-8c-9 8-46-23-39-34 3-4-2-5-10-2-9 3-14 9-12 13 3 4-4 7-15 7-19 0-19-1-2-16 10-8 16-14 14-13-2 2-10-5-18-15-14-16-14-16-9 3 6 20 6 20-9 0-9-11-20-20-25-20-4 0-12-4-17-9-4-5-3-6 3-3 7 4 14 0 17-7 4-10 0-14-13-11-23 4-35-10-23-27 4-7 8-19 9-26 2-10-1-10-11-2-8 7-20 8-27 4-8-5-8-1 2 11 9 11 10 16 3 11-7-4-18-16-24-28-6-11-7-18-2-15 5 4 10 0 10-8 0-11-5-12-21-3-18 10-19 9-9-3 9-11 8-20-3-39-13-22-14-22-9-3 3 12 1 25-6 29-8 5-9 3-4-6 6-10 4-12-9-7-10 4-15 3-11-3 3-6 1-11-4-11-26-3-30-4-37-11-7-8 30-3 44 6 4 2 8-4 8-14 0-11-5-16-15-12-8 3-12 1-8-5 3-5 0-10-8-10s-12 5-9 11-2 2-10-9c-9-11-14-26-11-34 3-9 3-12-1-8-5 4-13-2-19-14-11-19-13-19-18-5-4 10-3 15 3 11 6-3 10-1 10 5 0 7-6 10-12 8-7-3-13-14-13-24 0-11-8-31-17-45-10-13-15-17-12-8 3 10-1 16-11 16-15 0-19-9-16-34 1-7-8-13-20-13-22 0-22 0-3-15 11-9 13-13 4-10s-25-9-40-29c-14-19-28-32-32-30s4 15 18 29c13 13 24 30 23 37 0 10-2 10-6 0-2-6-9-10-14-6-5 3-9 2-8-3 4-22-2-35-15-30-11 4-13-2-9-25 4-26 3-28-10-17-8 8-12 19-9 24 3 6 1 6-3 2-14-12-15-41-2-50 8-6 4-7-9-4-26 6-52-7-35-17 6-4 11-2 11 4s5 8 11 4c8-5 6-10-5-16-12-7-22-5-33 4-15 12-15 11-4-11 11-19 11-25 0-32-8-5-18-9-22-9-5 0-6-4-2-9 3-5 0-13-6-17-7-4-9-3-5 4 3 6 2 13-4 17-10 6-13-5-11-35 0-10-1-11-5-2-8 17-25 15-18-2 8-20-14-30-33-14-15 12-15 11-4-10 6-12 8-22 4-21-20 3-27-2-13-12 12-9 11-10-7-6-26 6-29-2-10-22 9-11 9-13 0-7-21 12-36-4-21-22 10-14 10-15-2-4-17 15-40 16-40 1 0-5 4-8 9-4 5 3 13 0 17-6 4-8 3-9-4-5s-12 2-12-5c0-8-5-5-13 5-12 16-15 16-26 3-9-12-9-17 0-23 8-5 9-3 4 7-8 12-6 12 8 0 18-14 22-22 10-19-5 0-16-2-26-7-15-6-16-10-5-16 8-5 1-7-19-5-21 3-33 0-37-10s-2-12 6-8c6 4 3-7-8-24-10-17-20-29-22-27-3 3 1 11 8 20 8 10 9 15 1 15-6 0-11-5-11-11 0-5-4-8-9-5-5 4-7-2-4-13 3-10 0-22-7-26s-10-2-8 6c1 8-2 15-7 17-13 3-14-41 0-51 6-5 3-7-8-3-11 3-20 0-23-9-5-11-11-12-26-4-18 10-19 9-8-11 10-18 9-25-4-39-12-11-19-13-24-4s-11 8-22 0c-19-15-25-40-8-34 7 2 12 10 10 16-1 7 3 9 9 6 15-10-11-36-40-38-13-1-20-6-17-14 3-7 0-15-6-19-7-5-8-2-3 6 6 9 4 11-4 6-7-5-10-14-7-21 3-8-2-19-11-27-13-10-17-10-20 0-3 6-9 12-14 12-6 0-7-5-4-10 3-6 2-10-3-10-6 0-13-8-17-17-5-15-4-16 6-5 7 6 18 12 24 12 5 0-2-8-18-18-15-10-24-22-20-25 3-4 1-7-5-7-11 0-16 14-13 33 1 5-3 6-7 3-5-3-7-18-4-32 4-23 2-26-12-21-11 5-15 3-10-5 5-7 2-9-8-6-11 5-14 0-12-17 1-17-2-22-13-18-12 5-12 7-1 14 7 5 8 9 2 9-18 0-24-13-12-27 9-11 7-12-8-6-16 6-17 5-6-9 9-11 10-18 2-23-6-4-9-1-8 7 2 7-3 12-10 10-8-1-11 2-8 7s-9 18-27 30c-17 11-27 21-22 21 6 0 4 4-3 9-7 4-14 17-15 28-1 22-28 25-35 5-2-7-8-12-14-12-7 0-6 5 1 14 6 7 9 21 5 30-9 24-23 19-18-6 4-21 4-21-4-3-5 11-7 26-5 33 3 8-4 12-22 12-14 0-24 4-21 9 5 8-23 39-31 34-7-6-4 9 3 15 4 4 4 0-1-8s-4-12 0-7c5 4 19-2 31-14 14-13 24-17 29-10 6 11 5 12-17 15-7 1-12 7-10 14 1 7-1 11-5 11-5-1-11 0-15 1-5 1-11 3-15 5-25 7-43 19-43 28 0 7 4 7 12-1 15-15 28-15 28-1 0 5-4 8-9 4-11-6-34 29-24 38 3 4-5 4-17 2s-25-6-27-9c-2-2-20 12-38 32s-31 39-29 41c2 3 11-4 19-15 14-18 14-17 3 9-9 21-16 26-32 22-20-6-20-5-3 8 16 13 16 15-8 15-14 0-25-4-25-9s-5-9-10-9c-6 0-5 8 2 19s17 17 23 15c5-3 0 3-12 14s-19 23-15 26c3 4-1 4-11 0-20-7-13-24 11-25 10 0 12-3 5-6-7-2-23 3-35 11-12 9-18 16-12 16 5 0 10 11 10 23 0 13-6 24-13 24-6 0-10-4-7-9 3-4 0-8-5-8-10 0-16 22-12 43 1 5-3 6-9 2-6-3-8-10-6-14 3-4 1-13-3-20-6-9-11-10-15-2-4 6-1 11 6 11s2 7-10 16c-18 12-20 19-12 34 9 16 8 18-6 13-12-4-15-3-10 5 4 7 1 12-9 12-12 0-13-4-6-18s6-19-3-19c-12 0-13 19-5 57 3 10-5 16-23 18-16 2-28 8-28 13s-7 9-16 9c-8 0-12 5-9 10 4 6 10 8 14 6 4-3 8 1 8 9s-4 12-9 9c-4-3-8 1-9 8 0 7-5 3-11-8-9-20-11-21-27-5-13 11-15 22-10 39 5 12 7 22 6 23-1 0-13 3-27 5-26 5-42 23-33 38 3 5 1 6-6 2-6-4-9-11-6-16s0-12-6-16c-8-4-9-3-5 5 4 6-2 15-16 21-19 9-19 10-3 7 11-2 26 2 33 9 9 10 4 12-27 11-29-2-38 1-37 13 1 8-5 14-12 12-8-1-11 2-7 8 5 8 13 6 26-6 11-9 22-14 26-11 3 4 0 7-8 7-12 0-11 2 1 11 13 9 12 10-2 5-10-3-20-1-24 5-3 5-15 7-27 4-12-2-17-2-10 1 17 7 4 34-16 34-14 0-14-2-1-11s13-10 0-6c-9 2-14 14-13 30 1 15-2 27-7 27-6 0-10-5-10-10 0-6-8-5-19 2s-17 16-15 20c8 12 14 51 7 45-9-10-44 13-38 24 4 5 1 9-5 9s-10-6-9-12c1-7 1-20 0-28-1-13-2-13-11 0-5 8-7 23-4 34 4 13 3 16-7 11-9-6-11-2-7 13 4 13 2 20-6 19-6-1-10 6-8 15 1 9-2 19-8 23-5 3-7 0-4-9s-3-19-18-27c-21-11-22-11-9 5 12 14 12 19 1 29-9 9-11 9-6 0 3-6 1-15-6-19s-10-4-6 1c10 11-10 45-25 41-6-1-9-1-4 1 4 3 7 9 7 14 0 6-4 8-9 4-5-3-12 4-16 15-3 11-12 20-20 20-7 0-15 10-17 23-2 15-9 21-22 19-13-3-17 1-13 12 3 8 2 18-4 21-5 4-7 10-4 15 6 9-14 8-30-2-5-3-19-1-30 3-18 9-18 9 3 5 15-3 22 1 22 11s-6 12-22 8c-23-7-23-7-3 9 19 15 19 16-7 6-18-6-28-6-28 0s5 10 12 10c11 0 2 14-10 16-18 2-42 17-42 27 0 5 9 2 19-7 13-12 21-14 26-6 4 6 1 9-7 8-7-2-12 3-10 10 1 6-1 11-5 11-22-4-33 2-27 14 5 7 0 6-11-3-16-14-17-13-11 6 4 15 2 23-8 27s-13 1-10-7c3-7-2-13-10-13-11 0-12 6-5 25 5 14 7 27 4 30s-5 0-5-6c0-7-5-12-11-12s-9 6-6 14-3 22-13 31c-11 10-17 22-14 27 3 4 2 8-3 7-19-3-32 2-36 14-2 6-3 4-2-5 2-10-1-18-6-18s-9 11-9 24c0 25-22 51-33 39-4-3-7-1-7 5 0 7-5 12-11 12-5 0-7-4-4-10s-1-7-10-3c-9 3-13 9-8 12 4 3 9 15 11 26 2 18 2 18-8 3-6-10-15-18-20-18-6 0-10 8-10 18 0 14 2 15 10 2s10-12 10 3c0 11-8 17-21 17-14 0-19 5-16 15 4 8 2 17-4 20-5 4-7 10-5 14 3 4-1 8-9 8s-12-4-9-9c3-4 0-8-7-8-6 0-9 8-7 18 3 12-1 18-13 20-11 1-27 3-38 4-19 2-18 25 3 41 6 5 1 5-11 2-23-6-26-2-24 40l1 20-9-20c-5-11-7-23-5-27 3-4 0-9-5-12s-7 11-5 32c3 35 2 36-10 13-9-15-16-20-20-12-4 6-2 11 3 11 6 0 11 7 11 15s-5 15-11 15c-8 0-8 4 0 14s9 16 1 21c-6 4-9 1-8-7 2-7-4-11-12-9s-20 4-26 4-9 8-7 17c3 10-3 20-13 24-13 5-14 4-6-7 9-10 8-14-1-14-13 0-15 5-19 46-1 11-6 17-10 15-4-3-8 0-8 6 0 7-8 9-19 5-15-4-18-1-16 20 2 14-1 23-5 20-12-7-32 30-22 40 4 5 2 5-4 2-6-4-19 2-29 13s-24 16-33 13c-11-5-14-2-10 9 9 21-6 41-34 45-13 2-25 8-26 14-3 6-9 6-17-1-11-9-12-7-8 9 3 12 9 18 14 15s9-1 9 5c0 5-9 13-20 16-11 4-18 11-14 16 3 5 0 8-8 7-7-2-12 3-10 10 1 6-1 11-5 10-5-1-22 5-39 15-17 9-34 14-36 12-10-10-5 31 6 45 10 13 9 13-7 1-22-17-29-11-31 28 0 16-4 27-9 24-4-2-5-9-2-14 4-5 0-9-7-9-15 0-68 39-54 40 5 0 17-7 26-15 14-13 17-13 17 0 0 8-4 12-9 9-4-3-12 6-18 21-8 21-13 24-28 16-14-7-26-5-48 10-16 10-23 19-16 20 27 3 31 4 39 12 4 5 1 7-7 5-9-2-14 3-12 12 2 8 0 12-4 8s-14-2-23 4c-9 8-8 3 4-12s13-20 4-12c-9 6-18 10-21 7-5-5-8 13-9 50 0 18-1 19-10 3-6-10-15-18-21-18s-5 7 3 17c12 14 12 16 0 9-9-6-12-5-9 5 3 8 11 13 17 11 7-1 9 3 6 9-5 8-10 8-18 0-15-15-27-14-27 4 0 8-5 15-11 15-5 0-7-4-4-10 4-6-1-7-11-3-11 4-13 8-6 11 7 2 9 9 5 15-4 7 0 8 13 3 15-6 16-5 7 5-10 10-16 9-29-2-10-8-15-9-11-2 4 6 1 13-5 16-10 3-10 8 2 23 11 15 11 16 0 7-22-20-49-16-47 6 1 12 6 17 15 14 11-5 11-7 0-14-9-6-9-9-1-9 6 0 14 4 18 9 7 13-24 28-52 26-12-1-21 3-20 9s-3 10-10 9c-9-2-10 4-3 23 7 17 7 23 0 19-6-3-10-1-10 4 0 6-7 11-16 11-8 0-13-4-9-9 3-5 1-12-3-15-5-3-9 7-8 22 1 23-3 27-24 25l-25-3 24 14c20 11 21 14 7 19-10 4-15 3-11-3 3-6 1-10-4-10-6 0-11 8-11 17 0 15-2 14-15-3-14-18-14-17-5 11 11 28 11 29-8 11-14-11-22-14-27-6-3 6-1 9 6 8 17-4 17 22-1 48-12 19-15 20-28 7-8-7-17-11-20-8-4 3 0 10 8 15 10 6 11 10 3 10-7 0-10 7-7 18 4 10 3 13-3 6-8-11-43-15-40-5 3 13-15 51-24 51-6 0-7 5-4 10 3 6-1 10-10 10s-14-4-10-9c3-5 0-13-7-17s-10-4-6 1c4 4 1 17-7 29-8 11-15 25-15 31 1 5 7-1 15-15 17-30 19-21 3 15l-12 26-13-23-13-23 3 24c1 14-4 26-13 28-13 4-13 3 0-6 19-13 0-14-20-1-11 7-11 10-2 10 7 0 10 5 7 10-5 8-12 7-22-2-14-12-15-11-3 8 11 18 9 24-14 47-15 15-34 24-45 22-15-3-18 0-14 13 6 15 5 15-13 2-15-11-16-11-7 0 18 19 16 31-2 23-9-3-15-2-14 3s1 18 0 28c-1 18-2 18-18 3-17-14-18-14-20 11 0 14-6 28-12 30s-19 11-28 20c-12 12-18 13-21 4-2-6-8-12-14-12s-6 6 2 15c7 9 8 15 2 15-5 0-13 7-16 15-4 10 6 7 28-10 23-18 33-21 33-10 0 7-3 14-6 13-21-2-31 4-25 14 4 6 3 8-4 4-6-3-14-1-17 5-4 5-13 8-19 6-7-3-19-1-27 4s-9 9-2 9c6 0 10 8 8 18-2 9-4 20-4 23-1 3-8 6-17 6-15 0-15-1 0-12s15-13-1-26c-11-9-14-10-9-2 4 7 0 23-8 35-9 12-16 19-16 14s-6-3-14 3c-7 6-12 22-10 36 1 14-2 23-7 19-5-3-13 5-18 18-6 13-10 17-10 9-1-8 7-24 16-35 17-20 17-20 1-7-15 11-21 11-35 0-15-11-16-11-5 1 14 17 16 60 2 60-5 0-7-8-4-17 5-15 4-15-4-3-6 8-8 18-5 23s-5 6-18 2c-19-5-21-4-9 4 8 6 10 11 4 11-7 0-15 7-18 16-5 13-4 14 7 6 10-9 14-8 14 3 0 7-3 14-6 13-20-2-31 3-26 12 4 6-1 7-12 3-10-3-15-3-11 2 11 12-11 35-28 28-8-3-14 1-14 10s-14 23-32 31c-37 19-41 20-32 4 4-7 3-8-5-4-6 4-9 12-6 17 4 5 0 9-7 9-7 1-2 7 11 14 18 10 20 14 8 19-8 3-19 1-24-4-7-7-12-5-17 6-4 11-2 14 7 9 6-4 2 4-11 18-12 13-19 28-15 31 3 4 1 7-5 7-15 0-15-13 0-28 21-21-1-13-27 9-17 16-22 26-15 38 7 14 3 16-26 16-28-1-32 1-22 13 21 25 18 41-8 36-17-3-22 0-18 10 3 9-6 19-25 27-17 8-31 18-31 22 0 5 4 5 10 2 5-3 10-2 10 4 0 5-9 13-20 16s-20 12-20 20c0 16-25 26-36 15-5-5-18-2-28 6-14 10-16 14-5 14 8 0 3 6-11 13s-29 26-35 45c-5 18-16 32-25 32-13 0-13-1 0-10 13-8 13-10-2-10-10 0-16 7-15 19s7 17 17 14c11-4 12-3 2 4-7 5-28 9-47 8s-32 2-29 7c3 4 8 6 12 4s12 2 19 9c9 10 8 14-9 18-13 4-17 10-12 18 4 8 3 10-5 5-9-6-9-11 0-22 6-8 7-14 3-14-5 0-15 9-22 21-9 13-19 18-30 14-14-5-15-4-4 6 16 17 15 29-3 29-8 0-15 7-15 15 0 9-6 12-17 8s-14-3-9 5c4 7 1 12-8 12s-16 5-16 10c0 7 6 7 19 0 25-13 31-13 31 1 0 5-4 8-9 4-13-7-43 24-35 37 4 7 2 8-5 4-6-4-9-11-7-15 3-4 0-13-6-21-8-12-9-12-4 2 3 11-2 19-14 23-10 3-25 21-34 40s-22 37-29 41c-8 5-7 2 2-9 7-9 9-17 3-17-16 0-24 33-10 42 19 11 0 10-22-2-13-7-21-7-25 0-4 6-12 7-18 3-17-11-38-13-32-3s-15 8-33-3c-9-6-9-13-2-28 6-10 7-19 3-18-26 4-35-3-30-23 6-22 5-22-8-4-8 10-12 23-8 29 3 6 1 7-5 3s-8-14-5-23c5-12 3-14-8-8-11 7-11 5 1-10 9-11 10-16 2-11-7 4-12 2-12-4s-4-8-10-5c-5 3-10 1-10-5s-6-8-12-4c-7 4-4-3 7-17 14-17 15-20 3-10-9 7-22 10-28 6-5-3-10-1-10 6s-2 10-5 7-1-18 5-33c9-25 9-27-5-15-13 11-14 10-9-6 7-18 6-18-16 1-13 11-20 15-17 8 4-6 3-14-1-17-5-3-8-17-7-31 2-14-1-25-7-25s-7 7-4 16 2 12-5 9c-5-4-8-20-5-36 2-16 0-31-4-34-5-3-7 4-5 16 3 15 0 19-11 15-9-3-20-6-25-6s-9-5-9-11c0-5 4-8 9-4 5 3 12 1 15-4 4-5-5-8-18-7-19 2-23-1-18-13 5-14 4-14-13-1-17 14-18 14-5-10 12-23 12-24-4-11-14 12-16 12-11-2 4-8 1-18-6-23-8-5-10-3-4 7 7 11 6 12-7 2-8-7-18-9-22-5s-6 0-4-8-2-14-9-15c-6 0-15-4-20-9s-3-6 5-2c8 5 12 0 12-13 0-12-5-21-11-21-5 0-7 6-3 13 6 9 3 8-8-1-10-8-14-20-11-30 6-15 5-16-12-2-11 9-16 10-11 3 4-8 1-13-9-13-9 0-14-4-10-10 3-5 13-7 23-3 10 3 8-1-6-12-13-9-32-15-43-12-10 3-16 1-13-4s-2-12-10-15c-9-3-16-11-16-17 0-5 9-2 19 7 19 17 19 17 17 0-2-9-10-18-18-20-32-4-58-16-58-25 0-6-4-8-9-4-6 3-8-4-6-16 3-16 0-19-12-15-13 5-14 4-3-9 8-10 9-15 2-15-6 0-9-8-6-17 5-15 4-15-4-3-6 8-9 17-6 21 2 4-4 13-14 20-15 12-16 12-4-2 10-14 9-19-12-32-18-12-23-23-19-39 3-17 2-19-5-9-5 7-15 10-21 6-8-4-9-11-2-18 12-15-23-62-39-52s-60-22-54-39c3-7-2-20-10-29-8-8-13-17-10-20s-10-4-29-3c-22 2-34-2-34-10 0-10 4-11 14-2 11 8 12 7 7-5-3-8-12-18-21-21-8-4-13-13-9-21 7-20-4-19-19 2-11 15-13 13-10-15 1-17-1-29-6-27-10 7-50-35-44-45 3-5-2-11-11-14-15-6-15-4 0 19 17 27 13 33-8 12-7-7-12-22-11-33 1-18-4-21-27-20-16 1-32-2-35-7-3-6-2-7 3-4 6 3 16-4 23-16 10-16 10-19 1-10-7 6-19 9-28 5-13-5-12-7 4-13s15-8-8-8c-16-1-28-6-28-12 0-5-4-8-9-4-5 3-13 0-17-6-4-8-3-9 4-5s12 2 12-3c0-10-14-15-33-12-4 1-3-8 3-19 7-13 7-20 0-20-5 0-10 5-10 11 0 5-4 8-9 4-6-3-8-14-6-25s1-19-3-19c-25 4-34-3-29-21 3-11 0-23-5-27-6-3-8-2-5 3 9 15-9 38-22 29-8-5-9-11-2-19 14-16 4-26-17-19-10 5-14 2-11-8 5-14-46-71-55-62-2 2-7-5-11-16-3-12-10-21-15-21s-7-8-4-17c4-11 2-14-3-8-4 6-17 17-27 25-19 15-19 15-1-15 10-16 13-25 5-18-15 14-55-1-45-17 3-5-4-14-15-20s-20-20-20-30c0-11-4-20-10-20-5 0-9 3-9 8 3 19-2 32-12 32-8 0-8-4 0-13 8-11 4-19-17-38-15-13-30-24-34-24-3 0-10-4-15-9s-3-6 5-2c7 4 12 1 12-8s-7-16-16-16c-8 0-12-5-9-10 4-6 11-7 17-4 7 4 8 2 4-4-4-8-15-8-31-2-20 8-23 6-18-7 4-10 2-14-4-10s-9-3-7-18c1-14-2-25-8-25s-8 7-4 15c4 13 2 14-14 5-11-6-20-13-20-16s4-3 9 0 11-1 15-9c3-8 0-17-6-21s-8-3-5 3c4 6-3 13-15 16-15 4-18 3-10-5 12-12 5-38-10-38-6 0-5 6 2 15 15 18 5 20-14 3-11-11-11-15 3-25 13-10 13-11 1-10-8 2-21 6-28 11-8 5-19 3-25-3-9-9-7-10 8-5 19 7 18 6-2-18-13-13-23-28-23-32 0-5 9 3 21 18 15 19 24 24 33 16 7-5 17-6 21-2 5 4 5 1 1-6-6-9-11-10-21-2-9 8-17 3-31-17-10-16-17-32-16-36 1-5-2-6-8-2-6 3-8 11-5 16 4 5-1 9-9 9s-18-5-22-12c-4-6-3-8 3-5 6 4 14 0 17-8 4-12 0-14-18-11-14 3-23-1-23-9 0-7 7-11 16-8 13 4 13 3 2-5-8-6-20-8-28-5-7 3-13 0-13-7 0-6-4-9-9-6-4 3-7-6-5-19 1-14-2-23-7-19-5 3-6 10-3 16 4 6 2 8-4 4-6-3-9-15-7-26s-1-23-7-26c-7-4-8-2-4 4 8 13-4 15-28 6-9-3-16-11-16-16 0-6 8-4 17 3 9 8 14 9 10 2-4-6-1-14 5-17 9-4 8-5-2-5-34 2-49-2-65-17-12-13-13-19-4-30 7-8 9-17 5-21-3-3-6-1-6 5 0 7-8 12-17 12-15 0-16-2-3-10 12-8 10-10-10-11-14-1-28-1-32 0-4 0-4-7-1-16 5-12 3-14-8-8-12 7-12 6 1-11 22-29 24-30 18-13-4 9-3 21 1 28s8-4 9-24c1-26-2-34-11-29-7 4 1-7 16-23 29-32 40-35 67-18 13 8 13 7 1-8-9-12-10-17-2-17 7 0 9-4 6-10-3-5 1-10 9-10 9 0 16-4 16-10s-9-6-26 0c-37 14-44 11-9-5 26-12 33-11 50 3 18 16 19 16 6 0-11-15-11-19 3-24 9-3 16-10 16-15 0-6-9-5-21 1-33 18-31 7 2-12 17-10 27-13 24-8-11 17 7 11 21-7 9-13 9-22 1-31-5-7-6-12-1-11s20 1 33 0c18-1 22-5 18-21-3-11-1-18 3-15 5 3 13-2 18-10 4-9 18-17 29-18 14-1 19-6 15-19-2-10 1-18 7-18 7 0 10 4 7 9s2 15 12 22c15 12 16 12 4-2-10-13-10-19 2-28 8-7 13-24 11-39s-2-21 2-14c4 10 9 8 20-8 10-14 22-20 35-17 16 4 17 3 7-9-12-15 0-19 17-6 5 4 0-2-11-12-16-16-17-18-3-13 10 3 20 2 23-3 4-6 1-10-6-10s-10-3-7-6c4-3 15-1 27 5 21 12 40-2 20-15-8-5-9-3-4 6 6 9 4 11-4 5-9-5-7-13 8-29 12-12 18-26 14-31-5-4 6 0 22 11l30 18-18-21c-18-21-18-21 2-16 13 3 21 1 21-6s-5-9-12-5-5-2 6-14c10-12 23-19 27-16 11 6 12-8 2-22-5-5 0 0 10 11 13 14 18 15 16 5-3-19 11-50 22-50s7 22-6 33c-6 5-4 7 5 4 9-2 16-16 16-35 2-46 2-46 22-31 9 7 14 9 10 5-5-5 2-14 15-21 12-6 21-19 21-29-2-16-1-16 19 1 19 16 20 16 8 1-7-10-11-18-7-18 3 0 1-12-4-26-7-16-7-23 0-19 6 3 10 12 10 20s4 16 9 19c5 4 8-2 7-11-2-10 6-30 17-45 20-27 21-27 40-10 19 16 20 16 8-6-7-13-10-26-7-30 3-3 6 0 6 6 0 20 21 13 42-13 11-14 25-22 31-18 7 3 3-4-8-17s-15-21-9-17c10 6 48-30 49-45 0-3 4-10 9-15s6-3 2 5c-4 7-1 12 8 12s17-7 17-15c3-31 4-35 12-36 4 0 11 1 15 4 4 2 0 2-8 0-12-3-12-1-3 8s19 4 44-21c18-18 34-39 35-47 4-28 34-62 49-57 8 4 12 11 8 18-3 6-2 7 2 3 12-10 16-39 5-32-5 3-12 0-16-6-4-7-3-9 3-6 10 6 63-48 63-64 0-4 10-9 22-12 19-5 20-8 7-24-12-16-11-16 8 1 22 18 23 18 48-5 13-13 25-28 25-32 0-5-7-1-16 8s-19 13-23 10c-3-4 2-11 12-16 9-6 15-14 13-18-3-4 7-7 21-7 17 1 27-5 29-16 2-15-1-16-18-7-15 8-23 8-32-1-8-8-6-9 8-4 15 6 17 4 11-6-5-8-4-11 2-7s23 0 39-8c15-7 31-12 36-9 4 3 5-2 2-10-3-9 2-17 16-21 16-5 19-12 15-28-5-17-4-19 4-7 5 8 13 11 17 7 4-3 1-15-7-24-7-10-9-15-5-11 5 4 15 0 23-10 13-15 13-15 3 6-6 12-7 22-1 22 9 0 21-23 27-48 1-8 6-17 10-20 4-4 4 1 1 10-3 10-2 20 4 23 5 4 9 3 8-2-4-21 3-32 21-38 11-3 20-11 20-16 0-6-4-8-8-5-5 3-9-1-9-9s4-12 9-9c4 3 11-2 14-10 7-19 31-21 36-4 3 7 7 5 11-6 4-9 3-15-2-11-5 3-8-3-7-12 3-19 75-65 88-57 4 3 5-1 2-9s0-18 7-23c7-4 10-3 5 4-3 6-1 14 5 18 7 4 9 3 6-3-4-6 0-19 7-29 9-12 11-23 5-30-5-7-4-11 6-11 8 0 12 4 9 9-3 4 1 8 8 8 9 0 14-11 14-27-1-24 3-27 23-25 13 2 21 0 18-5-3-4 1-17 9-28 8-10 14-15 14-11 0 5 7 3 15-4 12-10 13-16 3-28-7-9-8-13-2-9 16 9 48-29 40-48-3-10-2-14 5-9 6 3 9 14 6 23-2 10 1 18 8 18s12-10 10-22c-1-12 4-22 11-22s11 3 9 7 3 7 11 7c10 0 11-4 4-11-13-13-13-36 0-36 5 0 9 3 7 8-1 4 2 8 7 10 6 1 12-10 14-25 2-16 8-32 14-38 7-7 8-3 3 13-4 13-2 22 4 22s10-5 8-12c-1-7 3-12 8-13 17-1 35-16 35-28 0-7-4-6-11 3-9 13-10 13-6 0 2-8 10-15 18-15 23-1 78-63 74-84-3-15 1-19 16-16 10 2 19-1 19-6 0-6 5-7 12-3s8 3 4-4-2-20 4-29c11-16 11-16 6-1-3 10-2 19 2 22 7 4 10-8 14-50 1-6 10-9 20-6 10 2 18-1 18-7s-8-11-17-12c-12 0-13-2-5-6 7-3 19 0 26 6 9 8 13 7 13-4 0-8-5-15-11-15s-3-7 7-15c11-7 28-12 38-10 11 2 17 0 14-6-5-8 7-13 26-11 3 1 6-5 6-13 0-11-5-10-24 2-12 8-23 11-23 5 0-5 9-12 21-15s19-10 16-15c-4-4 4-8 15-8 13 1 27-8 33-20 5-11 18-20 28-18 9 1 20-3 24-9 3-7 3-9-2-5-4 4-15 2-23-5-13-10-14-9-7 2 5 10 4 12-4 7-17-11-4-25 19-21 11 2 22-1 25-6 4-5 11-6 17-3 7 5 8 2 3-6-6-10-4-12 8-7 12 4 14 0 11-19-3-14-1-23 3-21 5 3 20-3 33-13l24-18-19-24c-12-13-13-18-4-10 13 10 19 10 28-1 6-8 7-18 3-22-4-5-2-5 5-1 6 3 14 2 18-4s11-8 16-5 6-1 3-10c-4-9-3-15 2-14 19 3 34-1 34-10 0-5-10-7-22-5-21 4-21 4-3-4 11-5 26-7 33-5 6 3 12 0 12-6s-6-11-14-11-18-4-21-10c-10-16 28 1 43 19 12 14 13 14 10-4-2-15 2-19 17-17s17 1 6-7c-8-5-21-7-29-3-10 3-13 1-8-6 4-7 22-12 39-13 27 0 29-2 12-9s-17-9-3-9c18-1 41-33 33-45-3-3 0-2 6 3 20 17 36 1 33-31-4-30-3-31 10-12 14 18 15 18 22 1 5-15 9-16 16-5 5 8 6 2 3-18-4-26-1-33 15-37 14-4 18-10 14-24-6-17-6-17 8 1 18 23 38 14 31-14-3-12 0-21 8-21 8-1 21-3 29-4s22-3 30-4c10-1 8-6-8-17-12-8-22-21-21-27 0-9 2-9 6 1 2 6 11 12 19 12 10 0 12-5 7-12-12-20-12-37-1-45 7-3 8-1 4 5-4 7-1 12 6 12 9 0 9 3-2 10s-10 9 9 7c14-1 27-10 32-25 5-13 14-20 20-16 8 5 8 1 0-14-14-26-14-43 0-19 10 16 13 17 27 4 10-8 24-17 32-20 12-4 11-6-2-6-10-1-18-8-18-17 0-13 3-14 14-5 10 9 16 8 25-3 7-8 20-12 29-9s14 3 11-1c-4-4-17-9-29-11s-25-7-29-11c-3-4 1-5 10-1 9 3 22 0 28-6 8-8 11-7 11 3 0 7 3 10 6 7 4-4 1-13-6-22-11-13-10-14 5-9 13 5 16 4 11-4-4-7-1-12 9-12 9 0 13 4 10 10-4 6 1 7 11 3s13-8 7-10c-12-4-5-43 8-43 5 0 5 8 2 17-6 15-5 16 9 3 9-8 13-17 9-20-3-3-7-11-9-19-2-11 0-12 10-3 23 18 42-3 47-50 1-5 6-8 12-8 5 0 7 5 3 12s-3 8 4 4c6-4 10-19 8-35-3-24 0-27 20-23 13 2 21 9 17 15-3 6-1 7 5 3 9-5 9-13 1-28s-8-19 0-14c10 7 16-6 12-27-1-5 3-6 9-2 5 3 10-1 10-9s4-18 10-21c12-7 2 21-18 53-13 20-13 22 2 16 9-3 13-10 10-15s0-9 5-9c6 0 11-6 11-12 1-22 27-49 48-51 11 0 20-6 19-12-1-5 7-9 18-7 15 2 16 0 7-6-11-7-10-11 5-16 17-7 17-8-2-22-14-11-15-15-5-14 34 5 41 0 35-22-5-19-3-18 10 5 9 15 18 27 21 27s2-4-1-10c-11-18-14-51-4-45 5 4 9 1 9-4 0-6 5-11 11-11 5 0 8 4 5 8-3 5 1 9 9 9s13-5 12-11 4-10 11-8c8 1 11-2 7-8-5-8-11-8-19-1-9 8-13 7-13-3 0-8 9-13 23-11 18 2 21-2 19-22-1-13 0-21 3-18 3 2 12-1 20-8 13-10 15-9 9 6-8 22-5 22 17-5 15-18 16-20 2-15-9 4-16 3-16-2 0-14 37-20 51-7 11 9 11 8 0-6-7-9-20-14-29-11-14 4-14 3-3-5 8-6 21-7 30-4 14 5 14 4 2-11-8-10-11-20-7-24 3-3 6-1 6 5 0 7 9 12 20 12s20-4 20-10c0-5-7-7-16-3-9 3-4-6 10-21 26-25 43-35 32-18-3 5 1 9 9 9s12-4 9-8c-2-4 6-15 18-25 13-9 16-14 7-11s-16 0-16-8c0-13 28-15 38-2 3 5 9 1 12-8 4-9 3-14-2-11s-11 0-14-7c-3-8 3-14 14-14 10-1 19 3 19 9s3 8 6 5c4-4 1-14-7-24-8-9-9-14-2-10 6 4 13 1 16-5 3-10 8-10 23 2 17 14 18 14 6-2-9-11-10-18-2-23 6-3 8-11 5-16-4-5 2-6 12-2 15 6 16 4 6-9-13-15-8-28 11-28 6 0 4 5-4 10-12 8-10 9 9 7 14-2 27-10 29-18 3-11 1-11-7 1-8 11-11 12-11 2 0-13 23-42 34-42 3 0 3 8-1 18-5 14-3 13 10-3 9-11 16-24 17-30 0-5-5-3-10 5-23 35-10-2 17-49 2-2 10 2 20 10 15 12 16 12 10-5-7-17-6-17 9-5 16 13 16 12 5-10-7-13-9-21-3-17 5 3 12-4 15-16 4-12 9-19 12-16 4 3 2 16-4 27-9 17-9 20 3 15 9-3 14-11 13-17-1-7 7-11 18-9 18 3 18 2 4-10-18-15-35-53-19-43 6 3 10 13 10 21s5 14 11 14c5 0 7-5 3-12-5-8-2-9 12-4 15 6 14 3-5-18-14-15-19-26-13-26 7 0 12 5 12 11s6 9 13 6c6-2 11-9 10-14-2-11 26-11 43 0 6 3 11 0 11-8s-4-12-9-9c-4 3-8-2-8-10 0-17 12-21 24-9 3 4 14 8 22 9 9 1 13-1 9-4-4-4-11-7-17-7s-12-8-14-19c-2-14 0-16 9-7 6 6 18 11 27 10 10 0 9-3-5-9-11-5-14-9-7-9 6-1 12-7 12-15s7-16 15-20c9-3 12-12 9-23-5-14-4-15 4-4 11 16 46 25 36 10-3-5-10-7-15-4-5 4-9 1-9-6 0-6 8-9 20-6 11 3 18 2 16-2-3-4 3-15 13-23 15-12 22-13 32-5 10 10 11 9 2-3-7-10-8-21-3-30 5-8 7-17 4-21-2-4 0-10 5-13 5-4 13-1 17 5 5 8 3 9-6 4-9-6-11-4-5 4 5 9 10 10 18 2 6-6 7-15 1-24-5-7-2-5 7 5 16 16 17 16 17-7 0-14-5-22-11-18-6 3-7 1-3-5 9-14 36-16 36-2 0 5 10-1 23-13s22-25 20-29c-2-5 1-8 6-8 6 0 11-6 11-12 0-7-14 3-30 22s-30 31-30 27c0-5 7-15 15-24 8-8 13-19 9-24-3-5 0-8 7-7 7 2 13-2 14-9 0-6 4-15 9-20 5-4 6-3 3 3-4 8 3 11 22 10 20 0 27-5 23-15-3-9-1-12 6-7 8 5 10 1 5-10-4-10-2-15 4-11 5 3 17-3 26-14 9-10 13-19 7-19-5 0-13 8-19 18-9 15-10 15-8-5 0-12 4-21 7-21 20 2 30-4 24-14-4-6-3-8 4-4 16 10 27-15 11-26-12-8-11-9 1-5 8 2 14 12 14 21-1 9 2 16 7 16s9-7 9-15 5-15 10-15c6 0 10-4 10-10 0-5-6-7-14-4s-17 1-21-5c-4-7 0-8 11-4 13 5 15 3 9-8-4-8-5-11-1-7 5 4 18 3 31-2s26-5 32 1 10 4 10-5c0-8-4-13-9-10-4 3-8 1-8-4 0-6 7-13 16-16s14-13 11-20c-4-10 0-13 14-11 10 2 19-2 19-8 0-7 4-6 11 3 9 13 10 13 6 0-2-10-14-14-33-13-20 2-25 0-15-6 8-5 28-7 44-5 27 3 28 2 12-10-14-10-15-15-5-21 8-5 19-1 28 11 12 15 13 15 9 2-6-18 15-42 28-30 4 4 2-3-4-16-12-22-11-23 7-13 15 8 23 6 36-8 10-11 13-22 8-25-11-7-34 17-27 28 3 3-1 2-7-4-15-12 20-42 40-35 8 3 10 0 6-7-5-8-2-9 9-5 10 4 16 2 14-6-1-7 5-11 13-9s12 0 8-3c-4-4-3-16 2-26 6-9 7-19 2-22-4-2-1-2 5-1 18 5 43-6 43-18 0-6-6-6-14 1-11 9-16 9-22 0-5-8-3-9 6-4 10 6 12 4 7-9-5-14-3-15 12-6 11 5 22 15 25 22 4 9 5 8 5-2-3-37 2-60 12-60 5 0 7 4 4 10-4 6 1 7 11 3 12-4 15-3 10 5s-2 10 8 6c13-5 11-10-9-26-14-10-30-16-36-12-7 4-9 3-5-4 3-6 15-10 26-9 10 1 16 5 14 9-3 4 2 8 10 8 9 0 13-7 11-19-3-15 2-19 21-16 23 2 31-14 25-49-1-5 5-4 13 3 17 14 24 5 30-35 2-9 13-19 25-21 16-2 20 1 15 9-4 8-3 10 2 5s9-14 9-20c0-7 6-12 14-12s15-9 17-20 7-21 13-23c5-2 8-9 5-17-3-7 0-16 7-21 8-4 10-3 5 4-5 8 0 11 16 8 13-2 22-9 21-15-3-12 34-34 46-27 4 3 7-4 6-15s-8-25-16-29c-11-7-9-9 6-9 40-1 54-5 49-13-6-10 9-11 22 0 5 4 0-3-13-15-18-17-19-22-7-27 9-3 12-1 9 4-3 6-1 10 4 10 6 0 11-5 11-10 0-6 11-16 25-22s24-16 22-22 0-20 5-31c8-18 8-18 4 3-2 12 0 22 5 22 8 0 14-31 10-53-1-5 3-6 8-3 11 7 35-20 27-32-5-8 7-11 45-13 9 0 22-12 28-26 7-14 17-23 25-20 7 3 20-3 29-14 9-10 12-19 7-19-13 0-8-20 10-39 14-15 17-15 33 4 10 11 16 14 12 7s-1-21 7-30c12-16 11-16-7-2-13 9-16 10-8 1 6-7 9-19 7-26-7-17 13-29 22-14 4 8 3 9-4 5s-12-2-12 3c0 6 7 11 15 11s15-9 15-20 4-20 9-20 7 10 5 23c-2 12-1 15 2 7 4-8 12-21 18-29 8-11 8-13-1-7-7 4-13 2-13-3 0-6 6-11 13-11 8 0 7-4-3-10-11-8-6-9 18-5 29 5 32 3 33-22 1-16 1-31 0-35-2-12 7-10 33 7 21 14 23 14 21-7-3-29 4-48 17-48 5 0 6 6 2 13-4 6 2 4 14-7 12-10 19-23 16-28-4-6 3-8 17-3 17 4 20 3 10-3-17-12-7-43 20-60 17-11 24-11 37-1 14 11 15 11 5-1-19-21-16-35 4-19 15 13 15 12 5-6-9-18-7-21 11-22 15-2 18 0 9 6-11 7-11 9 1 14 10 4 13-3 12-29-2-23 1-32 9-27 14 9 40 14 32 6-9-10 15-33 27-26 6 3 7 1 3-6-4-6-12-9-17-6-5 4-9 1-9-4 0-6 7-11 15-11s15-6 15-12c0-10 2-10 8-2 5 8 13 3 26-14 11-14 14-22 8-18-7 4-12 2-12-3 0-6 6-11 13-11 8 0 7-4-3-11-13-9-13-10 0-8 30 3 39-1 45-21 3-11 11-20 18-20 8 0 8 3-1 12-15 15-16 28-2 28 5 0 9-6 7-12-1-7 4-12 12-10 12 3 12 0 1-13-7-8-10-19-6-22 4-4 11-1 16 7 6 8 10 11 10 6s-8-18-18-29c-17-20-17-20 11-2 15 10 30 15 34 11 3-3 1-6-6-6s-9-5-5-12c4-6 3-8-4-4-6 3-14 1-18-5-4-7-3-9 3-6 6 4 18-2 28-13s22-17 27-13c6 3 14 0 18-7 5-8 9-7 13 5 4 9 3 13-2 10s-12-1-16 4c-5 9 40 5 55-4 4-3 6 10 4 28-3 22-1 28 5 17 6-8 8-17 5-21-2-4 0-10 5-13 5-4 8 6 6 20-2 22 1 25 21 21 14-2 21 0 17 6-3 6 2 16 12 23 11 8 16 21 12 33-3 14-1 18 9 14 8-3 11-9 8-14s2-6 11-3c14 6 14 8-2 20s-15 13 10 8c21-3 27-1 27 13 0 15-2 16-10 3-7-11-10-11-10-2 0 7-5 10-12 6-6-4-8-3-4 4 3 6 23 9 44 7 20-1 31-1 24 2-6 3-10 9-7 14 4 5-2 7-12 4s-2 2 17 12c19 9 39 16 43 15 5-2 6 2 2 8-5 8-11 7-21-1-8-7-14-7-14-1 0 13 29 24 43 16 8-5 7-2 0 7-7 7-13 18-13 24 0 5 4 3 10-5 7-12 10-11 16 5 10 25 34 44 57 45 9 0 17 4 17 10 0 5 8 7 18 4 14-5 14-4 2 4-10 8-18 8-27 0-8-6-16-8-20-4-3 3-1 6 5 6s9 8 6 18c-4 10-2 13 3 7 13-16 47-19 37-3-19 30 0 49 23 23 4-4 3-5-4-1-6 3-14 2-17-3-4-5 2-8 11-7 9 2 19 8 21 14 2 7 7 10 11 7 5-2 6 8 5 23-2 15-1 21 2 15 3-7 10-13 15-13 6 0 5 10-2 23-12 22-12 22 9 4 15-14 22-15 28-6 4 7 3 10-3 6s-13-1-16 7c-6 14 9 16 29 3 7-4 10 2 8 18-2 25 11 35 18 13 3-8 7-6 11 5 3 9 1 19-5 23-7 5-8 2-3-6 6-9 4-11-4-6-14 9-8 18 17 23 9 2 24 5 32 7s14 6 13 9c-2 4-3 10-3 13 0 4-7 1-15-6-9-7-15-8-15-2 0 16 31 24 46 11 10-8 12-6 9 12-6 28 20 70 39 63 7-3 20 1 27 9 8 7 20 12 27 11s8 0 2 3c-13 6-13 33 1 33 5 0 8 4 4 9-3 5-1 12 4 15 5 4 13 1 17-5 4-8 3-9-4-5-8 5-10 1-5-9 4-13 8-14 14-4 4 7 6 16 3 20-2 4 3 10 12 13 10 4 14 14 11 26-4 17-3 18 16 8s20-9 10 4c-10 12-10 14 5 13 9 0 23-4 29-8s15-2 19 4c4 8 3 9-4 5-6-3-16 3-22 14-11 20-10 21 10 10 18-10 21-10 14 2-12 19-14 39-3 32 5-3 7-10 4-15-4-5-1-9 4-9 6 0 11 5 11 11 0 5 4 8 9 5 4-3 8 2 8 12 0 33 3 42 14 42 8 0 8-5-1-15s-9-15-1-15c6 0 11 5 11 11 0 5 5 7 11 3 8-4 8 0 0 14-10 18-8 24 14 38 14 9 22 21 18 27-3 5-1 7 5 3 5-3 13 0 15 6 4 9 6 10 6 1 1-6-3-14-9-18-11-7-2-35 12-35 6 0 5 6-2 15-10 12-10 15 0 15 8 0 11 9 8 24-4 21-1 24 24 22 16-1 32 2 35 7 3 6 1 7-4 4-6-4-14 0-17 9-4 10-2 13 6 8 7-5 9-2 5 9s-2 14 8 10c8-3 12-9 9-14-8-14 6-11 22 5 9 9 10 17 4 21-5 3-10 1-10-5s-5-8-11-4c-8 5-6 10 5 16s22 6 31-2c12-10 13-8 10 11-6 31 20 70 42 62 12-5 14-3 8 7s-4 12 9 7c11-4 15-3 11 4-4 6 1 9 11 7 11-2 18 2 16 10-1 6 2 12 8 12 5 0 10 4 10 10 0 5-8 7-17 4-15-5-15-4-3 4 10 8 18 8 27 0 18-15 16-3-3 16-8 9-11 16-5 16 5 0 13-5 16-10 9-15 25-2 18 15-4 11-1 13 11 9 9-3 13-11 9-17-3-6-1-7 5-3 15 9-7 47-23 39-5-4-6-2-2 3 5 5 12 9 16 9s15 8 25 18c15 15 36 22 58 18 4 0 5 9 3 20-3 16 0 19 15 14s18-3 14 9c-3 9-10 14-14 11-5-3-12 0-16 7s-4 10 1 6c4-4 16-3 27 3 14 8 24 7 36-3 15-11 15-11 5 3-7 9-9 20-5 24 4 5 0 5-8 1s-6 0 5 8c11 9 26 24 34 34 13 16 13 16 8 0-4-10-1-18 4-18 7 0 9 11 7 24-4 21-1 24 23 22 25-2 27 0 17 18-10 19-10 20 5 7 20-16 23-1 5 18-11 10-10 11 5 6 9-4 17-11 17-16 0-6 6-4 14 3s14 15 14 18c-1 20 3 30 10 26 5-3 9 1 10 9s3 22 4 30 5 12 10 9 5-10 2-16c-5-7-2-8 5-4 7 5 10 14 7 22s0 11 9 7c8-3 12-10 8-16-3-6-1-7 6-3 9 6 9 11-1 24-11 13-11 15 4 10 10-4 19-1 22 8s11 12 17 8c8-4 9-3 5 4s-2 12 3 12c6 0 11 4 11 10 0 5-8 7-17 4-15-5-15-4-3 4 10 8 18 8 27 0 8-6 16-8 20-4 3 3 2 6-4 6s-13 7-17 15c-4 12-2 13 13 6 13-7 18-6 18 4 0 8-4 12-8 9-4-2-10 0-14 5-3 6 5 8 19 5 19-3 26 2 36 26 7 16 17 27 23 23s8 0 4 10c-6 15 13 34 63 62 13 8 13 7 1-8-9-11-10-17-2-17 10 0 15 13 12 33 0 4 9 7 21 7 18 0 20 2 8 9-8 6-18 7-22 5-4-3-5 2-1 11 4 12 8 13 13 5 5-9 10-6 15 9 3 11 11 21 17 21s6-6-2-15c-7-9-10-18-6-22 3-3 6 0 7 8 0 8 4 6 9-6 7-16 8-12 6 15s1 36 13 37c42 4 77 19 44 20-10 0-24-4-31-10-10-8-12-7-10 4 2 8-3 13-10 11-8-1-11 2-7 9 5 7 11 7 17 1 21-21 55 2 48 33-1 6 11-1 27-15 19-17 22-18 10-4-21 25-23 41-2 24 9-8 15-8 15-2s-10 14-21 17c-16 5-18 9-9 15 7 4 10 12 7 17s0 10 8 10c11 0 12-5 3-21-6-12-7-18-3-14 5 4 15 2 24-5 14-11 14-10 2 6-13 16-13 20 0 28 10 6 11 9 1 9-7 0-11 4-7 9 3 6-3 14-12 20-25 14-7 14 20-1 21-11 21-10 7 7s-13 18 4 12c16-6 17-5 7 7-10 11-7 17 11 30 13 9 23 22 23 29 1 6 6 11 13 10 6-2 16 6 22 17 6 12 16 17 22 14 7-5 9-2 5 9-3 8 0 20 7 26 10 8 13 6 12-12-1-12-5-29-10-37-7-12-6-13 4-3 14 13 20 32 22 71 1 26 8 23 12-5 2-10 6-17 9-15 6 2 8 7 6 15 0 1-2 11-4 22-3 17-2 18 8 5 7-8 19-16 27-18 10-2 7 4-8 18-27 26-28 34-3 20 28-15 35-12 20 7-8 9-9 14-4 12 13-7 46 27 37 37-4 4-1 4 6 0 6-4 13-2 13 3 1 6 2 16 3 21 0 6 4 10 9 10h13c4 0 1-6-5-14-8-10-9-16-1-21 6-4 9-3 8 2-1 4 4 19 11 32s8 21 3 17c-6-3-13-2-16 3-7 11 13 9 31-2 8-5 11-3 8 5-3 7 6 26 20 42s25 25 25 21c0-5-9-18-20-30-16-17-17-22-6-22 8 0 13 4 10 8-2 4 2 11 10 16 17 10 24 43 11 63-7 13-6 13 7 2 13-10 17-10 22 3 3 9 11 13 18 9 8-5 9-2 5 9s-2 14 7 11c8-3 17 0 21 5 3 6 10 9 15 6 4-3 11 2 14 11 3 8 2 12-4 9s-10-2-10 4c0 19 19 21 30 4 10-16 10-15 5 4-5 18 0 25 27 38 18 8 26 13 16 11-11-3-15 1-14 12 2 9 8 17 14 17s14 3 18 8c4 4 12 7 18 7 5 0 2-6-9-13-14-11-15-16-5-22 8-5 11-4 7 2s0 14 9 17c9 4 12 11 7 18-12 21-12 38 0 35 7-1 11 4 9 12-3 12 0 12 12 1 19-15 21-24 4-14-7 5-8 3-3-6 5-8 4-11-3-6-6 3-13 3-16-2-11-19 25-7 45 14 15 16 17 24 8 29-8 5-10 4-5-3 4-8 2-10-8-6-12 5-12 8 2 23 15 15 18 15 30 1 11-13 12-13 10 0-2 8 3 14 10 12 10-2 10 2 2 18-12 21-11 22 23 24 12 1 21 7 19 14-1 7 2 12 8 12 5 0 10-5 10-12 0-6 3-8 6-5 4 4 2 13-5 21-9 11-8 15 4 20 9 3 13 2 10-3s0-13 6-17c7-4 9-3 5 4-3 6-2 13 3 17 5 3 8 14 6 25-3 16 0 18 21 10 14-6 23-6 20-1s1 14 9 21c12 10 12 15-1 38-15 25-15 25 0 8 9-11 16-16 16-11s7 0 15-11c14-18 15-18 6 6-11 33-4 55 14 40 10-8 15-8 21 1 4 8 3 9-4 5s-12-3-12 3c0 5 5 13 10 16 6 4 8 10 5 15-3 4 8 7 24 6s29 0 29 3c-3 39 16 57 25 24 4-14 5-13 6 4s6 21 19 17c14-5 14-4 2 4-8 6-18 8-22 6-4-3-5 2-2 11 4 9 9 14 12 11 8-9 42 14 42 29 0 8 5 15 11 15 5 0 7-5 3-12s-3-8 5-4c6 4 9 16 6 27-5 15-3 17 11 12 13-5 16-3 11 10-4 11-2 14 8 10 8-3 12-10 8-16-3-6-1-7 6-3 9 6 9 11 1 21-13 15 11 27 38 19 14-5 14-4 3 4-15 11-25 46-11 37 5-3 12 0 15 6 4 5 14 8 22 5 8-4 11-1 8 5-4 6 0 9 11 7 10-2 19 3 19 10 0 6 3 11 6 10 3-2 13 3 22 10 9 8 22 10 28 6 8-4 9-3 5 4-10 16-41 10-66-13-15-13-24-15-31-8-8 8-6 11 7 10 11-1 18 4 16 11-1 8 2 11 8 7 5-3 13 0 16 8 2 7 10 14 17 15 24 1 60 11 66 18 3 4-2 4-11 1-21-7-20 16 1 48 9 15 11 16 7 3-7-22 1-23 20-4 8 8 24 13 35 11 17-4 19-2 8 11-8 10-15 12-23 4-5-5-15-10-20-10-6 0-1 7 10 15 12 8 31 12 43 10 11-2 21 0 21 6 0 8-15 13-32 10-5 0-8 3-8 9 0 5 7 10 16 10 8 0 12 5 9 10-4 6-3 10 2 9 25-4 41 3 46 22 3 12 10 18 16 14 6-3 11-2 11 4 0 5-6 12-12 14-10 4-10 6-1 6 6 1 19-9 29-21 13-19 15-19 10-4-4 11-1 23 6 29 9 6 8 7-4 3-10-3-18-1-18 4 0 8 28 15 52 11 3 0 5 11 3 24-2 20 1 23 11 14 10-8 12-5 9 18-2 15-2 22 1 16 8-18 31-16 38 3 3 8 11 12 17 8 8-5 9-3 5 5-6 9-12 9-25-3-15-14-18-14-18-1 0 8 4 12 9 9 4-3 11 1 14 9 2 7 11 14 19 15s21 3 29 4c15 1 11 22-8 47-7 9 1 7 19-5 30-18 30-18 15 1-9 11-10 16-2 11 7-4 12-1 12 8s5 16 11 16c5 0 7 5 3 12s-3 8 4 4c9-5 9-13 1-27-6-12-8-23-6-26 3-2 8 5 12 16 3 12 11 21 17 21 7 0 6 5-1 14-10 12-8 13 11 9l23-6-20 19c-12 10-16 15-9 11 7-5 20 3 34 20 21 26 21 26 7 2-11-18-12-30-5-40 8-11 9-11 5 3-7 21 18 45 26 26 3-7 3 2 0 21-5 25-3 32 6 27 15-10 74 50 65 66-4 7-3 8 4 4 6-4 9-14 6-24-5-14-4-14 4-3 6 8 8 20 5 26-2 7 8 26 22 41 15 16 25 22 23 14-1-9 2-16 7-17 6 0 9 3 7 8-1 5 2 9 8 9 5 0 13 15 18 32 6 24 14 33 29 33 12 0 25 4 30 9s3 6-4 2-13-2-13 3c0 6 5 11 10 11 6 0 10 6 10 14 0 21 26 40 36 25 5-8 3-9-6-4-9 6-11 4-5-5 5-8 4-11-2-7-5 3-10 0-10-8 0-13 3-13 18 1 18 16 19 30 4 54-8 13-7 13 8 1s21-9 18 12c0 4 6 7 15 7s12-5 8-12c-5-9-3-9 9 1 15 12 15 31 1 31-3 0-2-5 2-12s3-8-5-4c-9 6-9 11 0 23 11 13 15 13 27-4 13-16 14-16 9 0-8 21 2 49 14 42 4-3 6-13 3-23-5-13-4-14 4-3 5 7 16 18 23 23 11 8 10 9-3 4-10-3-18-1-18 4 0 10 13 14 40 11 13-2 13-1 0 8-8 5-18 7-22 5-4-3-8 0-8 6s11 8 24 6c15-3 30 2 38 12s9 13 1 9c-8-5-11-1-10 12 1 16 5 18 19 10 11-6 16-15 11-22-4-7 0-7 10 2 18 14 24 26 8 17-5-3-15 2-22 11-10 12-10 14-1 9 7-4 12-1 12 9 0 9 5 13 10 10 6-4 7-11 4-17-4-7-2-8 5-4 6 4 9 12 6 17-4 5-2 9 4 9s8 6 6 13c-3 6 4 23 15 37s18 18 14 9c-7-22 14-35 22-15 3 9 11 13 17 9 6-3 7-1 3 6-4 6-12 9-17 6-5-4-9-2-9 3 0 6 7 13 16 16s12 11 8 18c-5 9-3 9 9-1 17-13 22-7 18 21 0 4 7 5 17 2 16-5 16-5-1 9-16 13-16 15-2 21 9 3 14 2 11-3-6-10 24-25 32-16 3 3 0 5-5 5-12 0-10 46 2 58 4 4 4-3 1-15-9-29 10-39 24-12 7 12 8 19 3 16-5-4-10 0-10 8s4 12 8 10c3-3 12 2 19 10 17 20 31 19 24-2-5-15-4-16 5-2 13 19 7 55-9 51-6-1-8 2-4 9 5 9 12 6 25-9 14-18 18-19 23-6 3 8 2 12-4 9s-10-1-10 4c0 10 29 16 53 12 5-1 6 3 2 9-3 6-10 8-15 5s-12 0-16 6c-5 8-3 9 5 5 8-5 14 0 18 13 7 27 23 28 18 1-2-11 0-18 5-15 4 3 7 16 6 28-2 15 2 24 11 24 8 0 12-6 9-14s-1-11 4-8c14 9 12 32-2 39-7 4-4 5 8 2 12-2 29 1 38 6 13 7 14 13 4 31-10 20-10 21 5 8 15-11 17-11 17 2 0 8-3 17-7 20-5 2-2 2 5 1 7-2 15 3 18 10 3 9 14 12 27 8 19-5 20-4 9 11-12 14-12 19 1 31 8 9 24 13 36 11 11-2 24 1 27 7 4 6 3 8-3 5-6-4-13 0-16 7-4 10 0 14 13 11s17 1 13 11c-3 8 1 14 11 14s13-6 10-17c-5-14-4-15 4-4 5 7 15 17 22 21 8 5 7 9-5 13-9 4-13 3-10-3 10-16-1-11-16 7-8 9-9 14-3 10 7-4 17 0 24 8s20 15 29 15c14 0 14 2 1 10-20 13-4 13 21-1 18-9 19-8 10 9-8 15-7 21 4 25 10 4 12 1 9-11-5-14-4-15 4-2 8 10 8 18 0 27-6 8-8 16-4 20 3 3 6 1 6-6s5-9 10-6c6 4 7 12 3 18-4 7 2 5 12-3 17-14 18-13 13 7-5 19-3 21 12 13s17-6 13 11c-5 20-4 20 18 8 22-11 23-11 9 6-13 15-12 19 9 36 13 11 17 19 10 19s-9 3-6 7c4 3 16-2 26-11 19-17 19-17 17 1-4 21 12 45 25 37 5-3 6 3 2 13-6 16-5 17 12 3s18-14 5 10l-13 25 22-19c11-11 24-16 28-13 3 4 2 7-4 7-19 0-24 31-8 46 11 11 15 12 15 3 0-12 14-4 16 9 2 21 17 41 26 36 5-3 1-12-9-19-17-13-17-14 4-12 12 0 20 4 17 8-2 4 1 11 7 15 8 4 7 9-2 15-7 4-10 11-6 15 3 4 13 1 21-5 11-9 16-9 22 0 4 7 3 9-3 6-6-4-13 2-16 14-4 16-3 18 9 8 10-8 14-8 14-1s7 9 17 5c12-5 14-3 7 8-4 8-10 23-11 34-3 16-1 17 7 5 5-8 10-10 10-5 0 6 7 1 15-9 17-23 20-14 5 14-7 13-7 21 2 26 6 4 8 3 4-4-3-6-2-13 4-17 10-6 14 6 11 35-1 12 2 11 13-3 12-16 14-16 20-2 3 9 2 13-4 10s-10-2-10 3c0 16 13 21 31 12 12-7 20-7 24 0 4 6 1 9-5 8-17-4-21 29-5 42 9 8 15 8 20 0 10-16 24-2 20 20-2 13 1 17 10 14 8-3 11-13 8-22-4-14-3-15 6-2 7 11 5 20-7 34-16 18-16 18 8 6l25-13-19 22c-22 24-13 29 11 6 11-11 19-13 27-5 7 5 16 8 19 5 4-3 4-2 1 2-3 5-11 8-16 8-6 0-13 6-16 13-2 7 2 10 10 7 14-6 57 32 57 50 0 5 5 11 13 13 9 2 8 0-2-7-9-7-10-11-3-11 17 0 25 17 13 25-8 5-7 11 1 21s15 11 24 4c9-8 15-8 20 0 3 6 11 8 16 5s6 1 2 10c-5 13-7 14-14 3-12-19-11 0 1 23 9 16 14 17 33 8l22-12-20 23-20 23 30-19 30-18-19 22c-20 23-20 23 0 16 17-7 18-6 4 11s-14 18 10 5c22-12 24-11 13 2-13 15-8 28 11 28 6 0 5-4-2-9-11-7-10-9 3-14 9-4 14-3 10 3s4 14 17 19c20 9 10 16-15 12-5-1-6 3-2 9 3 6 11 7 17 4 8-5 9-1 4 11-5 15-4 16 9 5 11-9 15-9 15-1 0 7 5 9 12 5 8-5 9-1 4 12-6 15-5 17 5 7 7-7 17-13 22-13s1 7-8 16c-12 13-13 19-4 30 7 8 14 12 17 9s12 1 20 8c13 9 14 9 8 0-4-7-2-13 3-13 6 0 11 7 11 16s5 12 13 8c6-4 9-4 5 1-4 4-3 14 3 22 6 7 8 13 4 13s-2 7 5 15 16 12 21 9 9 0 9 5c0 6-5 11-12 11-6 0-8 3-5 6 4 4 14 1 24-7 11-9 14-10 9-1-5 8-1 12 11 12 15 0 15 2 3 9-8 6-18 7-24 4-5-3-6-1-2 5 4 7 15 8 29 3 20-8 23-5 25 15 1 13-3 24-10 24-6 0-8 3-5 6 4 4 13 1 22-6 13-10 15-9 15 8 0 12 4 24 10 27 5 3 7 0 4-8s0-18 7-23c8-4 10-3 5 4-4 7-2 12 4 12 7 0 8 6 0 19-7 14-7 22 2 27 6 4 8 3 5-3-4-6 0-14 9-17 8-3 12-2 9 4s-1 10 4 10c6 0 11 5 11 11 0 5-6 7-12 3-10-5-10-3 0 7 9 10 15 11 20 2 5-8 12-8 25 2 16 11 16 13 2 19-11 4-14 2-9-6 4-7 3-8-5-4-6 4-9 12-5 17 3 5 9 7 14 4s11-1 15 5c3 5 1 10-6 10s-9 3-6 6c4 4 12 2 20-4 9-8 17-8 27 0 13 8 12 9-1 5s-15-1-11 15c2 11 8 16 11 11 10-14 28-13 28 2 0 8-4 12-9 9-16-10-7 6 17 30 14 14 25 21 25 17 0-5-7-14-15-21s-12-17-8-23 10-1 15 12c4 12 12 20 16 17 5-3 7 5 5 19-4 21-2 23 18 18 19-4 21-3 9 6-13 10-13 11 0 12 8 1 18 1 22 0 4 0 4 7 1 16-4 11-3 14 5 9s10-1 5 11c-6 16-5 17 12 3 14-11 17-11 11-1-7 10-3 12 15 6 22-7 22-7 6 9-21 21-22 27-2 20 10-4 15 0 15 14 0 12 5 24 12 28 7 5 8 3 3-6-6-9-4-11 5-5 7 4 16 2 21-6 5-9 7-4 5 16-3 40 11 60 32 43 13-11 14-11 8 0-6 9-3 12 9 10 23-4 29 29 8 41-13 7-12 9 6 14 12 3 19 1 15-4-3-5-1-9 5-9 5 0 12 6 14 13 4 9 8 8 16-3 14-19 14-9 1 26-10 25-9 26 7 13 15-12 16-12 10 5-7 17-6 17 10 5 11-9 14-10 9-1-4 6-2 13 3 13 6 1 15 2 20 3 5 0 13 5 18 10 4 5 3 6-3 3-12-7-29 21-19 31 3 3 5 0 5-5 0-14 24-11 27 2 1 6-1 12-4 15-4 3-3-1 2-9 6-10 4-12-4-7-8 6-9 12-2 20 6 7 7 17 3 21-4 5-1 5 6 1s10-11 8-15c-3-3 4-7 14-7s18 3 18 6c-2 21 3 42 9 37 3-4 12-2 20 4 7 6 13 8 13 3s4-2 10 6c6 9 5 19-2 28-6 7-7 12-2 11 21-4 34 2 34 16 0 8 9 15 19 15 11 0 23 5 27 12 5 7 2 9-8 6-8-4-21-2-29 3-11 8-9 9 6 7 13-2 19 2 17 11-3 12 0 12 13 1s14-10 8 6c-6 17-5 17 10 5 12-9 17-10 17-2 0 7 4 10 9 7 4-3 6 5 4 18-3 13 1 27 8 31 8 5 10 4 5-3-4-7-2-12 5-12 6 0 9 8 6 19-3 14-1 18 9 14 8-3 12-9 9-13-3-5-2-11 3-14 13-8 11 28-2 36-6 5-1 8 13 8 17 0 22 4 17 16-5 13-2 15 14 11s19-2 11 7c-13 16 5 37 25 29 9-3 14 1 14 12 0 10-5 13-12 9-6-4-8-3-5 4 4 5 16 8 27 5 19-5 26 5 21 31-1 5 4 4 11-2 11-9 14-7 15 9 1 12-3 17-9 13-7-5-8-2-3 6 6 10 13 8 28-11l20-24-8 24c-5 15-4 21 3 17s9 2 7 15c-4 18-2 19 12 7 15-12 15-11 5 9-15 27-15 33-1 33 5 0 8-4 5-9s3-11 15-14c16-4 18-3 8 9-9 11-8 14 4 14 8 0 17 7 20 14 4 11 1 13-11 10-15-5-15-4 1 6 9 6 22 8 29 4 6-4 8-3 4 4-3 6-2 13 4 17 5 3 10 1 10-4 0-6 5-11 10-11 7 0 7 6 0 20-9 16-8 20 7 21 10 1 21 1 24 1 10-2 43 37 45 53 1 8-4 12-14 9-14-5-14-4 1 6 9 6 22 8 29 4 7-5 9-2 5 9-3 8 1 21 8 27 8 7 12 17 8 23-3 6-1 7 5 3 6-3 15 2 21 11 8 14 11 15 11 3 1-12 3-12 14 2 7 10 16 15 19 11 4-3 7 1 7 11 0 11-5 15-12 10-7-4-9-3-5 1 7 9 28 15 54 17 10 1 10 5 1 15-6 7-8 16-4 20 3 3 6 2 6-4s7-13 15-17c13-4 14-2 5 14s-8 22 5 26c8 3 12 10 9 15-8 14 3 11 19-6 13-13 16-13 21 1 3 8 2 12-4 9s-10 1-10 10c0 11 5 15 15 12 15-7 29 9 30 33 0 8 9 19 21 25s19 17 16 25c-4 12-3 13 10 3 19-16 28-7 28 30 0 22 4 28 15 23 13-4 14-2 5 14-9 17-6 25 17 48 15 15 26 31 25 36-2 5 4 3 13-4 13-11 14-10 9 5-5 13-4 16 4 11 7-4 12-3 12 3 0 5-6 12-12 14-7 3 2 4 20 3 26-3 30-1 21 10-13 16 2 19 18 3 7-7 9-3 6 14-4 19 1 28 16 37 13 6 19 16 14 23-4 7 0 6 10-2 15-12 17-12 10 4-5 15-3 17 11 12 21-8 48 16 40 36-8 21 14 31 34 16 13-10 12-8-2 9-11 12-16 25-13 29 4 3 7 2 7-4s7-13 15-17c13-5 14-2 4 15-8 16-8 20 1 14 7-4 14 1 17 15 4 16 8 18 14 8 7-10 9-10 9 2 0 13 1 13 10 0 8-13 10-12 10 3 0 10 4 16 8 13 4-2 9 5 9 16 2 20 1 20-12 2-7-11-15-17-18-14-2 3 7 16 21 30 13 14 22 20 18 14-3-7 0-14 8-17 20-8 28 4 14 20-8 10-8 17-1 24 8 8 13 7 18-2 6-8 4-10-6-4-12 8-12 6 0-8 18-23 18-22 16 16-2 26 2 33 16 34 11 1 19-4 19-10 0-7 4-6 10 3s5 19-2 28c-9 10-8 12 3 10 8-2 18-7 22-13 5-5 6 0 2 12-5 18-2 21 13 18 10-2 25 1 33 7 11 8 10 9-3 4-10-3-18-1-18 4 0 6 4 10 10 10 5 0 6 7 3 17-4 11-3 14 5 9 8-4 12 0 12 10 0 16 1 16 15-2s14-18 10 4c-3 17 1 22 18 23h22l-22 9c-13 5-23 12-23 14 0 3 7 3 15-1 10-3 15 0 13 8-3 13 3 15 41 18 10 0 22 8 25 17 5 13 4 14-7 6-10-9-14-8-14 3 0 7 3 14 6 13 18-2 32 3 27 10-2 4 0 14 6 22 8 12 9 12 4-2-3-10-1-18 4-18 6 0 10 5 10 11 0 5 4 8 9 4 5-3 12-1 15 4 4 5 1 13-5 17-8 5-9 3-4-6s4-11-4-6c-17 11-3 26 17 19 15-6 16-5 2 12s-14 18 10 5c23-12 24-12 11 4-12 14-12 16 1 11 8-3 21 2 29 12 13 17 13 17-5 3-11-8-17-10-13-3 4 6 4 13 0 16-5 2-3 3 3 1 6-1 17 2 25 6 8 5 19 4 27-2 19-16 12 11-8 32-9 8-11 12-6 8 12-10 32-11 23-1-4 3-2 12 4 19 9 11 16 11 33 2 19-10 20-10 7 5-16 20-2 23 19 5 12-11 12-10 4 2-16 24-11 43 14 45 12 1 32 12 44 25 15 16 17 22 7 18-9-3-22-2-30 4-11 8-10 9 5 4 14-5 17-2 12 10-5 14-4 15 9 4 12-10 15-10 15 1 1 9 5 8 15-5 18-24 20-13 3 17-10 20-10 21 5 8 10-7 17-12 18-10 7 33 6 37-7 32-8-3-14 0-14 7 0 6 4 9 9 5 5-3 12-1 16 5 4 7 12 7 25 0 16-8 18-8 14 5-4 8-11 15-17 15s-7 3-4 6c4 4 14 1 23-7 16-13 16-12 4 11-12 22-12 24 2 12 12-10 18-9 28 3 7 8 16 12 21 9s6 2 3 10c-3 9-11 13-17 9-6-3-7-1-3 6 6 8 12 9 20 2 7-6 16-8 19-4 10 9-14 34-26 26-6-3-7-1-3 5 5 9 13 9 27 1 17-9 21-7 26 9 5 20 18 23 41 8 11-7 11-4 1 12-7 12-18 18-24 14-5-3-4 1 2 10 7 8 12 17 10 19-1 2 4-2 11-10 10-13 12-12 12 3 0 16 2 17 17 5 15-13 15-12 3 11-12 22-11 24 2 13 8-7 18-10 22-6s-3 15-16 25l-23 17 24-6c18-5 22-3 16 7-5 9-4 11 4 6 6-4 8-12 5-18-5-7-2-8 5-4 7 5 10 15 6 24-5 12-1 12 15-3 16-14 21-16 18-5-2 8-10 21-18 28s-10 12-5 11c21-3 36 1 31 9-2 4 0 14 6 22 8 13 9 12 5-2-3-9 0-19 8-22 10-3 12 0 8 11-5 12-3 14 8 8 12-8 12-6 0 8-8 10-11 20-7 24 3 3 6 0 6-7 0-9 5-7 15 6 13 18 14 18 9-6-4-22-3-22 5-5 7 15 4 24-13 38-20 16-19 16 19 1 22-9 37-13 33-8-4 4-2 14 5 23 11 14 10 15-8 1-19-14-19-14-6 3 8 10 21 15 29 12 13-5 13-3 1 12-13 15-12 16 8 11 17-5 21-2 18 13-3 13 1 16 13 12 14-6 15-4 5 8s-8 17 9 28c11 7 17 8 13 2-3-6-1-11 4-11 11 0 14 11 9 28-2 4-7 5-13 4-5-2-6 0-2 5 5 4 14 8 20 8 7 1 11 6 9 13-1 7 1 11 5 11 20-3 34 2 28 11-4 6 1 7 11 3 13-5 15-3 9 8-7 12-6 12 7 1 14-11 16-10 14 12-2 14 2 24 8 23s10 3 9 9c-3 14 28 14 47 0 12-9 13-8 4 4-6 8-8 24-4 35 7 19 7 19 19 0 11-18 12-17 6 9s-4 28 10 16c13-11 15-10 9 4-4 10-1 16 7 16 7 0 9 3 6 6-10 10 42 46 54 38 7-4 10-3 7 2s-2 19 3 32c7 18 12 21 27 13 14-7 19-6 19 4 0 8-4 12-9 9-13-9-9 0 17 36 14 19 25 29 25 24 0-6-5-15-12-22-21-21 7-13 30 8 26 25 29 38 5 19-17-13-17-13-2 10 9 14 22 27 30 29 11 3 11 1-1-8-13-10-13-11 0-7 8 2 15 13 15 25 0 11 3 24 8 28 13 14 7 27-8 14-12-10-14-8-10 9 5 25-11 28-18 4-3-10-4 1-3 24 2 31 0 40-11 36-18-7-65 6-58 16 7 12-5 41-17 41-6 0-4-8 3-17 12-16 12-17-2-6-9 7-19 11-23 8-3-3-2 1 4 7 15 18 12 32-3 19-10-8-14-7-15 2-3 42-10 52-32 49-14-2-20 0-16 7 5 7-2 11-15 11-18 0-19 2-9 15 7 8 17 12 23 8 6-3 7-1 3 6-4 6-11 9-16 6s-16 2-24 11c-9 8-16 11-16 5 0-5 8-15 18-20 9-6 12-11 4-11-16 0-53 60-45 74 4 6-2 4-12-4-11-9-16-10-11-2 4 7 2 12-4 12s-8 5-4 13c5 7 0 6-11-3-10-8-16-10-12-3 4 6 3 14-3 18-5 3-10 1-10-6s-3-9-7-5c-5 4 1 14 11 22 11 8 15 14 9 14-7 0-13 6-16 13-2 6-3 4-2-5 2-10-1-18-6-18s-9 7-9 15-5 15-11 15c-5 0-7-5-3-12s3-8-5-4c-6 4-9 12-6 17 5 8-7 13-26 11-3-1-6 6-6 13 0 11 4 12 14 3 7-6 16-8 20-4 3 3 1 6-5 6-7 0-12 6-12 14s-5 18-12 22c-6 4-8 3-4-4 4-6-1-10-13-9-11 0-17 5-15 9 3 4 0 8-6 8s-8 5-5 10c3 6-1 10-9 10-9 0-16 6-16 14s-7 17-16 20c-10 4-13 13-9 28 5 20 4 21-5 6-6-10-16-18-23-18-8 0-7 3 2 9 17 11 5 32-14 25-8-4-12-10-9-15s-2-6-11-2c-13 4-14 8-4 14 7 4 14 15 15 23 1 9-1 14-5 12-10-7-41 31-33 40 4 4 1 4-6 0-11-6-7-16 15-40 25-27 25-28 2-8-14 12-29 19-34 15-4-5-5-3-2 4 4 6 0 18-8 26-20 20-19 28 3 20 11-3 9 0-6 11-13 10-19 22-15 29s-1 6-11-2c-14-12-19-12-29-1-10 10-9 11 3 5 13-8 13-7 0 10-8 10-15 21-15 24s-4 5-9 3-5 5-2 15c6 14 5 15-5 6-10-10-9-17 6-33 10-11 13-20 8-20-6 0-14 7-17 16-3 8-10 13-15 9-6-3-8 4-6 15s-1 20-7 20c-5 0-7 7-4 16 3 8 2 12-4 9-9-6-14 7-11 30 1 6-8-1-20-15l-22-25 5 33c3 18 0 36-5 39-6 3-7 1-3-5 3-6 2-13-4-17-5-3-10 3-10 14 0 14-6 21-20 21-11 0-20 5-20 11 0 8-6 7-17-2-17-13-17-12-3 5 20 25 21 43 1 43-33 0-42 3-36 13 3 6-2 10-12 10-15 0-16 2-3 10s12 10-3 10c-12 0-16 4-11 13 6 9 5 9-8-1-21-17-42 8-33 40 5 18 4 20-4 8-8-11-11-12-11-2 0 7-4 10-10 7-5-3-10-1-10 6 0 6-8 9-19 6-15-4-19 0-16 15 3 11-3 30-11 42l-16 21 6-22c4-12 2-24-3-28-6-3-8 0-5 8s-2 17-10 20c-9 4-16 12-16 19 0 10 2 10 9 0 7-11 9-11 14 2 4 9 1 15-6 13-7-1-11 3-10 9 1 7-11 11-32 10-18-1-32 1-29 3 2 2-2 11-8 20-10 13-10 14 2 4 21-19 32-15 18 6-7 11-16 17-20 15-7-5-12 11-9 29 1 5-3 6-8 2-6-3-7-13-4-22 5-13 2-12-15 3-18 15-21 34-6 34 3 0 2-5-2-12s-3-8 5-4c17 11 4 25-18 21-16-3-19 1-15 23l4 27-16-25c-9-15-13-17-10-6 5 13 2 17-8 13s-13-1-9 8c3 8 9 12 14 9s6 2 2 11c-4 13-8 14-14 4-4-8-11-10-15-6-4 3-1 15 7 24 13 16 12 17-3 5-19-15-58-1-58 21 0 8 4 7 10-3 7-12 9-10 7 7 0 12-4 20-8 17-4-2-13 4-19 13-9 15-10 14-5-7 4-17 3-21-3-11-8 11-10 11-15 0-4-8-4-2-1 14 6 25 0 32-27 29-3-1-6 6-6 13 0 11 4 12 14 4 9-8 13-8 13 0 0 6-5 11-11 11-5 0-7 6-4 13 4 6-3 1-16-13-21-24-21-24-15-3 6 18 4 22-8 17-11-4-16 0-16 11 0 10 5 13 12 9 6-4 8-3 4 4-3 6-19 9-34 6-20-3-23-2-12 6 11 7 11 10 2 10-8 0-10 5-6 13 5 7 0 6-11-3-16-14-17-13-11 8 5 16 3 24-8 28-9 3-16 14-17 23s-4 6-9-9l-8-25-2 25c-1 14-2 29-1 34s-6 3-15-5c-16-13-16-12-6 7 11 21 9 22-22 20-27-1-32 2-24 11 7 9 7 13-2 13-10 0-10 3-1 14 10 12 8 13-8 9-12-3-21-1-21 5s8 12 18 14c14 3 13 5-6 10-12 3-20 2-16-3 3-5 0-9-6-9s-8-5-4-12c5-9 2-9-9 1-18 15-23 26-7 16 6-3 10-1 10 4 0 6-5 11-11 11-5 0-8 4-5 9 7 11-18 22-30 13-5-4-6-3-1 3 14 18 7 26-14 15-19-11-20-10-9 10s10 21-12 15c-22-7-22-6-4 7 18 14 15 44-4 33-4-2-24 6-44 20s-40 24-44 24c-4-1-16-1-26 0-20 1-20 1 0 16 22 16 17 19-8 4zm101-72c8-10 7-14-4-14-8 0-12 4-9 8 2 4-2 10-8 12-8 4-9 6-2 6 6 1 17-5 23-12zm-305-162c-4-8-11-12-16-9-6 4-5 10 3 15 19 12 19 11 13-6zm-204-225c0-5-5-10-11-10-5 0-7 5-4 10 3 6 8 10 11 10 2 0 4-4 4-10zm910-14c0-3-4-8-10-11-5-3-10-1-10 4 0 6 5 11 10 11 6 0 10-2 10-4zm-1015-75c3-5 2-12-3-15s-9 1-9 9c0 17 3 19 12 6zm-159-163c4-7 3-8-4-4s-12 2-12-5-3-10-6-6c-6 5 3 27 11 27 2 0 7-5 11-12zm1441-33c0-8-4-12-9-9-4 3-8 9-8 15 0 5 4 9 8 9 5 0 9-7 9-15zm249-227c4-7 3-8-4-4s-12 2-12-5-3-10-6-6c-6 5 3 27 11 27 2 0 7-5 11-12zm-1966-44c0-8-19-13-24-6-3 5 1 9 9 9s15-2 15-3zm2075-84c3-5 1-10-4-10-6 0-11 5-11 10 0 6 2 10 4 10 3 0 8-4 11-10zm-2288-95c0-8-4-12-9-9s-6 10-3 15c9 13 12 11 12-6zm2408-5c3-5 1-10-4-10-6 0-11 5-11 10 0 6 2 10 4 10 3 0 8-4 11-10zm-2439-32c4-7 3-8-4-4s-12 2-12-5-3-10-6-6c-6 5 3 27 11 27 2 0 7-5 11-12zm-116-133c-7-8-17-15-23-15s-2 7 9 15c25 19 30 19 14 0zm3035-315c-3-5-12-10-18-10-7 0-6 4 3 10 19 12 23 12 15 0zm-3415-55c0-2-9-3-19-2-11 0-18 5-15 9 4 6 34 0 34-7zm3544-86c-3-5-10-7-15-3-5 3-7 10-3 15 3 5 10 7 15 3 5-3 7-10 3-15zm-3650-20c-3-5-10-7-15-3-5 3-7 10-3 15 3 5 10 7 15 3 5-3 7-10 3-15zm3532-211c4-7 4-10-1-6-4 4-15 2-24-5-14-11-14-10-2 6 16 20 18 21 27 5zm-3852-114c3-8 2-12-4-9s-10 10-10 16c0 14 7 11 14-7zm3730 0c5-14 4-15-9-4-17 14-19 20-6 20 5 0 12-7 15-16zm-234-228c0-2-8-10-17-17-16-13-17-12-4 4s21 21 21 13zm-273-291c0-8-4-12-9-9s-6 10-3 15c9 13 12 11 12-6zm-3787-49c-7-7-13-7-20 0-6 6-3 10 10 10s16-4 10-10zm3730-21c0-12-19-12-23 0-4 9-1 12 9 8 7-3 14-7 14-8zm-3866-106c-3-5-10-6-16-3-8 5-9 1-4-11 5-15 4-16-9-5-14 11-13 14 2 25 19 14 37 10 27-6zm-58-55c2-12-1-13-12-3-7 6-11 16-8 21 7 11 17 3 20-18zm3774 1c0-7-30-13-34-7-3 4 4 9 15 9 10 1 19 0 19-2zm-3953-177c2-17 0-19-7-8-5 8-6 18-4 22 8 12 10 10 11-14zm-137-148c0-5-2-10-4-10-3 0-8 5-11 10-3 6-1 10 4 10 6 0 11-4 11-10zm-91-74c9-11 9-16-1-22-7-4-10-4-6 1 4 4 3 14-3 22-6 7-9 13-6 13 2 0 10-6 16-14zm-8739-40c14-18 14-18-7-6-12 8-19 18-16 23 3 4 6 7 7 5s8-12 16-22zm8680-26c-8-5-19-10-25-10-5 0-3 5 5 10s20 10 25 10c6 0 3-5-5-10zm-8529-57c13-16 12-17-3-4-17 13-22 21-14 21 2 0 10-8 17-17zm-281-58c14-19 14-19-2-6-10 7-18 18-18 24s1 8 3 6c1-2 9-13 17-24zm12337-133c-5-7-13-10-16-6s-1 9 5 11c7 2 10 14 8 26-4 21-4 21 5 2 5-12 5-25-2-33zm-3822-52c3-5 1-10-4-10-6 0-11 5-11 10 0 6 2 10 4 10 3 0 8-4 11-10zm-8715-20c0-5-5-12-12-16-6-4-8-3-4 4 3 6 2 13-3 17-5 3-14-3-20-12-6-10-11-13-11-7 0 16 21 33 36 27 8-3 14-9 14-13zm12440 0c0-5-5-10-11-10-5 0-7 5-4 10 3 6 8 10 11 10 2 0 4-4 4-10zm-11567-89c-1-2-9 1-17 8-11 9-15 9-19-1-2-7-4-1-3 13l1 27 21-22c11-11 19-23 17-25zm46-54c0-9-2-9-5 0-3 7-13 9-22 6-14-4-14-3-2 5 16 12 30 7 29-11zm-1135-42c-4-8-10-15-16-15-5 0-6-5-2-12 5-7 3-8-5-4-9 6-8 13 5 27 21 23 25 24 18 4zm8696-29c0-3-4-8-10-11-5-3-10-1-10 4 0 6 5 11 10 11 6 0 10-2 10-4zm-8782-55c-7-11-16-17-22-14-5 3-1 12 9 20 25 18 27 17 13-6zm12517-20c3-5 2-12-3-15s-9 1-9 9c0 17 3 19 12 6zm-3875-50c0-5-7-12-16-15-14-5-15-4-4 9 14 17 20 19 20 6zm-8762-50c-7-11-16-17-22-14-5 3-1 12 9 20 25 18 27 17 13-6zm1592 5c0-2-7-7-16-10-8-3-12-2-9 4 6 10 25 14 25 6zm45-35c3-5 1-12-5-16-5-3-10 1-10 9 0 18 6 21 15 7zm20-41c3-5 2-10-4-10-5 0-13 5-16 10-3 6-2 10 4 10 5 0 13-4 16-10zm-1757-65c-3-3-9 2-12 12-6 14-5 15 5 6 7-7 10-15 7-18zm12482-40c0-1-8-10-19-19-16-15-19-15-24-2-4 11-1 13 10 9 10-4 14-2 10 4-3 5 0 10 8 10s15-1 15-2zm-12722-200c-3-3-9 2-12 12-6 14-5 15 5 6 7-7 10-15 7-18zm2307-15c3-6-1-7-9-4-18 7-21 14-7 14 6 0 13-4 16-10zm148-128c14-15 15-19 2-19-8 0-12 4-9 9 5 7-10 12-29 9-5-1-6 3-2 9 9 15 20 12 38-8zm-2608-12c-3-5-12-10-18-10-7 0-6 4 3 10 19 12 23 12 15 0zm-131-100c-10-16-20-27-22-25-3 3 1 11 8 20 7 8 9 15 4 15-8 0 16 19 24 20 2 0-5-13-14-30zm-37-42c-3-8-6-5-6 6-1 11 2 17 5 13 3-3 4-12 1-19zm-27-41c0-7-4-6-10 3-9 14-14 7-11-13 1-5-3-6-8-3-5 4-14-2-20-11-6-10-11-14-11-9 0 6 10 20 21 33 22 22 39 22 39 0zm12513-12c-10-8-20-11-23-8s1 8 8 10c6 3 10 9 7 14-4 5 1 6 10 3 14-6 14-8-2-19zm-9454-39c9-11 9-16 0-22-7-4-9-3-5 4 3 6 2 13-4 17-5 3-10 1-10-6s-3-10-6-6c-5 5 3 27 10 27 2 0 9-6 15-14zm9335-64c2-4-5-9-17-9-17-2-19 0-7 7 18 12 18 12 24 2zm-3824-21c0-5-7-12-16-15-14-5-15-4-4 9 14 17 20 19 20 6zm-5380-61c0-5-5-10-11-10-5 0-7 5-4 10 3 6 8 10 11 10 2 0 4-4 4-10zm9107-35c0-8-4-12-9-9s-6 10-3 15c9 13 12 11 12-6zm-3930-105c-1-12-5-16-10-11s-6 14-3 20c11 16 15 13 13-9zm3737-58c3-5-1-9-9-9s-12 4-9 9c3 4 7 8 9 8s6-4 9-8zm-12570-47c-4-8-11-15-16-15-6 0-5 6 2 15 7 8 14 15 16 15s1-7-2-15zm8733-1c-3-3-12-4-19-1-8 3-5 6 6 6 11 1 17-2 13-5zm-4747-63c0-5-7-12-16-15-14-5-15-4-4 9 14 17 20 19 20 6zm-4019-58c10-11 10-14 2-9-7 4-13 2-13-3 0-6 5-11 10-11 6 0 10-5 10-12 0-6-9-3-21 8-11 10-16 20-10 22s9 8 5 13c-9 15 3 10 17-8zm8649-7c0-3-4-8-10-11-5-3-10-1-10 4 0 6 5 11 10 11 6 0 10-2 10-4zm-4579-29c-10-9-11-8-5 6 3 10 9 15 12 12s0-11-7-18zm126-97c34-30 34-31 7-26-29 6-45 16-24 16 10 0 10 3 0 15-7 8-16 12-21 9s-9 0-9 5c0 17 10 13 47-19zm-4023-51c-3-5-11-9-17-8-8 0-8 2 1 6 10 4 9 10-5 27l-18 21 22-19c13-10 20-23 17-27zm4116-39c5 9 9 8 13-3 3-9-1-17-12-20-12-3-17 2-18 17-1 12 1 15 4 7 4-10 7-10 13-1zm-4043-13c2-3-3-7-11-10s-20 0-26 8c-10 12-8 13 10 10 13-2 25-6 27-8zm11973-2c-7-8-17-15-22-15-11 0 14 29 26 30 5 0 3-7-4-15zm-7848-83c-4-10-7-12-10-4-2 7-9 9-14 6-6-4-8-2-4 4 3 6 2 13-4 17-5 3-10 13-10 22 0 13 5 12 24-6 15-14 22-29 18-39zm-4042-29c0-10 6-13 18-8 13 5 14 3 5-6-14-14-29-6-36 21-3 11-1 18 4 14 5-3 9-12 9-21zm4070 12c11-13 10-14-4-9-9 3-16 10-16 15 0 13 6 11 20-6zm50-57c0-4-4-8-9-8-6 0-12 4-15 8-3 5 1 9 9 9s15-4 15-9zm-4040-12c0-3-4-8-10-11-5-3-10-1-10 4 0 6 5 11 10 11 6 0 10-2 10-4zm44-68c-3-5-12-4-20 3-19 16-18 18 6 12 11-3 17-9 14-15zm4097-15c9-9 7-11-5-9-9 1-21 7-27 13-9 9-7 11 5 9 9-1 21-7 27-13zm-4041-43c0-5-2-10-4-10-3 0-8 5-11 10-3 6-1 10 4 10 6 0 11-4 11-10zm11358-56c-12-12-17-13-23-3-5 8-4 10 4 5 6-4 14 0 17 9 4 9 9 13 12 10s-1-13-10-21zm-11271-16c-3-8-6-5-6 6-1 11 2 17 5 13 3-3 4-12 1-19zm4128-47c3-5 1-12-5-16-5-3-10 1-10 9 0 18 6 21 15 7zm-4011-87c3-8 10-12 16-9s7-1 4-10c-4-9-7-15-8-13s-10 13-20 26c-11 12-14 22-9 22 6 0 14-7 17-16zm4125-42c-1-15-2-14-6 1-5 18-5 18-26 0l-22-18 19 22c20 24 37 22 35-5zm69-57c17-19 18-25 7-25-8 0-15 8-15 18 0 14-2 15-10 2-6-10-10-11-10-2 0 6-5 12-11 12-5 0-7-5-3-12 5-7 3-8-6-3-10 6-9 11 5 22 23 16 17 17 43-12zm2965 10c-3-9-8-14-10-11-3 3-2 9 2 15 9 16 15 13 8-4zm-7011-40c2 3 5-2 5-10 0-13-3-13-19 2-10 9-18 21-18 27s7 3 14-6c7-10 15-16 18-13zm6908-79c0-3-4-8-10-11-5-3-10-1-10 4 0 6 5 11 10 11 6 0 10-2 10-4zm-6740-106c0-5-2-10-4-10-3 0-8 5-11 10-3 6-1 10 4 10 6 0 11-4 11-10zm4110-15c10-13 9-15-11-14-13 0-18 3-11 6 6 2 10 9 6 14-9 15 2 10 16-6zm2480-5c0-5-5-10-11-10-5 0-7 5-4 10 3 6 8 10 11 10 2 0 4-4 4-10zm-6508-38c3 8 7 6 11-6 4-10 3-15-3-11-6 3-10 1-10-4 0-10 14-15 33-12 4 0 7-3 7-9 0-22-32-4-60 35-14 18-14 19 2 7 13-10 17-10 20 0zm4068-1c0-5-7-12-16-15-14-5-15-4-4 9 14 17 20 19 20 6zm2405-9c-3-3-11 0-18 7-9 10-8 11 6 5 10-3 15-9 12-12zm-2255-146c0-2-7-7-16-10-8-3-12-2-9 4 6 10 25 14 25 6zm79-92c-6-8-14-14-17-14s-1 5 6 12c9 9 7 15-6 25-15 13-14 13 6 3 19-9 21-14 11-26zm-3968-81c13-16 12-17-3-4-10 7-18 15-18 17 0 8 8 3 21-13zm9569-28c0-2-6-5-13-8-8-3-14 1-14 8s6 11 14 8c7-3 13-6 13-8zm-9536-31c5-14 4-15-9-4-17 14-19 20-6 20 5 0 12-7 15-16zm51-43c-3-5-1-12 5-16 5-3 10-1 10 6s3 10 6 6c14-14-8-27-28-16-17 9-18 13-7 20 18 11 22 11 14 0zm52-37c-3-3-12-4-19-1-8 3-5 6 6 6 11 1 17-2 13-5zm4072-16c-5-10-11-18-12-18-2 0-3 8-3 18s6 19 13 19c8 0 9-6 2-19zm131-103c0-2-9-9-20-15-16-9-18-8-14 5 5 13 34 22 34 10zm-4056-31c3-8 2-12-4-9s-10 10-10 16c0 14 7 11 14-7zm37-31c13-16 12-17-3-4-10 7-18 15-18 17 0 8 8 3 21-13zm9-34c0-8 6-7 18 2 15 13 16 12 3-4-10-13-17-15-27-6-17 14-18 19-4 19 6 0 10-5 10-11zm4130-33c0-2-8-10-17-17-16-13-17-12-4 4s21 21 21 13zm955-46c3-6-1-7-9-4-18 7-21 14-7 14 6 0 13-4 16-10zm3680-60c3-6-1-7-9-4-18 7-21 14-7 14 6 0 13-4 16-10zm-4447-96c-1-5-9-9-16-10-10-2-11 1-1 12 12 14 24 13 17-2zm-3918-160c0-8-5-12-10-9-6 4-8 11-5 16 9 14 15 11 15-7zm8082-11c-6-2-9-10-6-15 4-7 2-8-5-4-13 9-5 26 12 25 9 0 8-2-1-6zm-3792-68c0-2-6-8-13-14-10-8-14-7-14 2 0 8 6 14 14 14 7 0 13-1 13-2zm3686-37c-1-13-6-22-9-20-7 2-7 10 0 30 8 20 13 14 9-10zm-7698-150c-2-7 3-12 10-10 6 1 12-2 12-8 0-14-13-13-28 2s-16 28-2 28c6 0 9-6 8-12zm7376-189c-3-5-10-7-15-3-5 3-7 10-3 15 3 5 10 7 15 3 5-3 7-10 3-15zm-7084-109c0-5-7-7-15-4-8 4-15 8-15 10s7 4 15 4 15-4 15-10zm67-56c-3-3-12-4-19-1-8 3-5 6 6 6 11 1 17-2 13-5zm397-390c3-8 2-12-4-9s-10 10-10 16c0 14 7 11 14-7zm6050 0c3-8 2-12-4-9s-10 10-10 16c0 14 7 11 14-7zm-5951-114c9-11 13-20 7-20-5 0-14 9-20 20s-9 20-8 20c2 0 11-9 21-20zm5840-13c7 4 6-1-2-10-16-20-33-13-24 10 4 11 8 13 11 5 2-7 9-9 15-5zm-59-53c3-8 2-12-4-9s-10 10-10 16c0 14 7 11 14-7zm-321-325c-8-8-13-7-18 2-5 8-4 10 3 5 7-4 12-2 12 5s3 9 7 6c4-4 2-12-4-18zm-242-222c-10-9-11-8-5 6 3 10 9 15 12 12s0-11-7-18zm-4611-12c0-8-2-15-4-15s-6 7-10 15c-3 8-1 15 4 15 6 0 10-7 10-15zm140-125c0-5-2-10-4-10-3 0-8 5-11 10-3 6-1 10 4 10 6 0 11-4 11-10zm120-110c8-5 11-10 5-10-5 0-17 5-25 10s-10 10-5 10c6 0 17-5 25-10zm4060-120c0-5-5-10-11-10-5 0-7 5-4 10 3 6 8 10 11 10 2 0 4-4 4-10zm-136-118c3-5-1-9-9-9s-12 4-9 9c3 4 7 8 9 8s6-4 9-8zm-93-105c-10-9-11-8-5 6 3 10 9 15 12 12s0-11-7-18zm-3424-73c-3-3-12-4-19-1-8 3-5 6 6 6 11 1 17-2 13-5zm3333-38c0-3-4-8-10-11-5-3-10-1-10 4 0 6 5 11 10 11 6 0 10-2 10-4zm-116-121c-4-8-11-12-16-9-6 4-5 10 3 15 19 12 19 11 13-6zm-2937-127c-3-8-6-5-6 6-1 11 2 17 5 13 3-3 4-12 1-19zm2733-72c0-3-4-8-10-11-5-3-10-1-10 4 0 6 5 11 10 11 6 0 10-2 10-4zm-2500-141c0-2-6-8-13-14-10-8-14-7-14 2 0 8 6 14 14 14 7 0 13-1 13-2zm2345-25c3-6-1-7-9-4-18 7-21 14-7 14 6 0 13-4 16-10zm-2145-160c0-5-5-10-11-10-5 0-7 5-4 10 3 6 8 10 11 10 2 0 4-4 4-10zm136-177c7-7 19-13 26-14 11 0 11-2 0-6-17-7-52 25-51 46 0 13 2 14 6 1 4-8 12-20 19-27zm44-43c0-5-7-7-15-4-8 4-15 8-15 10s7 4 15 4 15-4 15-10zm1460-115c-7-9-15-13-17-11-6 6 20 36 26 30 2-2-2-10-9-19zm-1340-5c0-5-2-10-4-10-3 0-8 5-11 10-3 6-1 10 4 10 6 0 11-4 11-10zm1160-160c0-5-5-10-11-10-5 0-7 5-4 10 3 6 8 10 11 10 2 0 4-4 4-10zm-76-76c3-8 2-12-4-9s-10 10-10 16c0 14 7 11 14-7zm-770-76c-3-5-14-2-25 8-10 9-16 21-13 26s14 2 25-8c10-9 16-21 13-26zm461-248c-10-11-23-20-29-20s-3 5 7 11c9 6 14 15 11 21-4 7-2 8 4 4 7-4 12-2 12 5s3 9 7 6c3-4-2-16-12-27zm-145-60c-10-6-11-10-2-10 6 0 12-5 12-11 0-8-5-8-15 1-16 13-11 30 8 30 7 0 6-4-3-10z"/><path d="m4500 8426c0-2 8-10 18-17 15-13 16-12 3 4s-21 21-21 13z"/><path d="m6030 2816c0-2 8-10 18-17 15-13 16-12 3 4s-21 21-21 13z"/><path d="m14177 14073c-9-8 12-33 27-33 6 0 3 5-7 11-9 6-15 14-12 20 7 10 2 12-8 2z"/><path d="m14036 14005c-10-14-23-22-29-18-6 3-7 1-3-5 8-14 42 4 51 27s0 22-19-4z"/><path d="m14535 13720c3-5 8-10 11-10 2 0 4 5 4 10 0 6-5 10-11 10-5 0-7-4-4-10z"/><path d="m13360 13341c0-6 4-13 10-16s7 1 4 9c-7 18-14 21-14 7z"/><path d="m13322 13294c-7-8-8-14-3-14 10 0 25 19 20 25-2 1-10-3-17-11z"/><path d="m14968 13263c7-3 16-2 19 1 4 3-2 6-13 5-11 0-14-3-6-6z"/><path d="m15030 13201c0-6 4-12 8-15 5-3 9 1 9 9s-4 15-9 15c-4 0-8-4-8-9z"/><path d="m13065 13060c-3-6 1-7 9-4 18 7 21 14 7 14-6 0-13-4-16-10z"/><path d="m12990 12976c0-2 7-7 16-10 8-3 12-2 9 4-6 10-25 14-25 6z"/><path d="m12962 12934c-7-8-8-14-3-14 10 0 25 19 20 25-2 1-10-3-17-11z"/><path d="m12835 12800c-3-5-1-10 4-10 6 0 11 5 11 10 0 6-2 10-4 10-3 0-8-4-11-10z"/><path d="m12424 12402c3-5 0-13-6-15-9-4-10-6-1-6 17-1 25 16 12 25-7 4-9 3-5-4z"/><path d="m15875 12401c-3-5-2-12 3-15s9 1 9 9c0 17-3 19-12 6z"/><path d="m12333 12325c0-8 4-12 9-9s6 10 3 15c-9 13-12 11-12-6z"/><path d="m12180 12160c-12-7-10-9 8-7 12 0 22 5 22 9 0 11-12 10-30-2z"/><path d="m12150 12120c0-5 5-10 10-10 6 0 10 5 10 10 0 6-4 10-10 10-5 0-10-4-10-10z"/><path d="m12026 11978c3-5 10-6 15-3 13 9 11 12-6 12-8 0-12-4-9-9z"/><path d="m15826 11982c-3-5 1-9 9-9s15 4 15 9c0 4-4 8-9 8-6 0-12-4-15-8z"/><path d="m15810 11946c0-2 7-7 16-10 8-3 12-2 9 4-6 10-25 14-25 6z"/><path d="m11960 11924c0-5-12-17-27-26-16-10-23-18-17-18 18 0 60 37 52 46-5 4-8 3-8-2z"/><path d="m15706 11862c-3-5 1-9 9-9s15 4 15 9c0 4-4 8-9 8-6 0-12-4-15-8z"/><path d="m15629 11790c-17-14-20-19-9-20 13 0 13-1 0-11-13-9-13-10 0-6 8 2 14 10 12 17-1 7 5 18 15 26 10 7 15 14 12 14-4 0-17-9-30-20z"/><path d="m15670 11799c0-5 5-7 10-4 6 3 10 8 10 11 0 2-4 4-10 4-5 0-10-5-10-11z"/><path d="m11780 11739c0-5-4-8-9-4-5 3-12 1-15-4-8-12 14-8 39 7 18 10 18 11 3 12-10 0-18-5-18-11z"/><path d="m15513 11625c0-8 4-12 9-9s6 10 3 15c-9 13-12 11-12-6z"/><path d="m11606 11548c3-5 10-6 15-3 13 9 11 12-6 12-8 0-12-4-9-9z"/><path d="m11456 11418c3-4 1-8-4-8s-9-7-9-15c0-20 2-19 20 8 12 19 13 24 2 24-8 0-12-4-9-9z"/><path d="m14916 11082c-3-5 1-9 9-9s12 4 9 9c-3 4-7 8-9 8s-6-4-9-8z"/><path d="m11077 11053c-10-9-9-23 1-23 5 0 9 7 9 15 0 17-1 18-10 8z"/><path d="m14866 10985c-11-8-15-15-9-15s16 7 23 15c16 19 11 19-14 0z"/><path d="m14680 10854c0-1 6-7 14-13 10-9 15-8 19 2 3 8-3 13-14 13s-19-1-19-2z"/><path d="m10835 10800c3-5 11-10 16-10 6 0 7 5 4 10-3 6-11 10-16 10-6 0-7-4-4-10z"/><path d="m2151 10768c5-10 13-18 16-18s3 3 0 7c-4 3 0 11 8 17 13 9 11 11-9 11s-22-3-15-17z"/><path d="m2116 10765c4-8 8-15 10-15s4 7 4 15-4 15-10 15c-5 0-7-7-4-15z"/><path d="m2241 10704c-1-18 36-47 44-34 4 6 1 9-7 8-7-2-12 3-10 10 1 8-2 11-7 8-5-4-12 0-14 6-3 8-6 8-6 2z"/><path d="m14510 10666c0-2 7-7 16-10 8-3 12-2 9 4-6 10-25 14-25 6z"/><path d="m2380 10580c8-5 20-10 25-10 6 0 3 5-5 10s-19 10-25 10c-5 0-3-5 5-10z"/><path d="m2395 10540c3-5 8-10 11-10 2 0 4 5 4 10 0 6-5 10-11 10-5 0-7-4-4-10z"/><path d="m2529 10443c-13-16-12-17 4-4s21 21 13 21c-2 0-10-8-17-17z"/><path d="m10500 10449c0-5 5-7 10-4 6 3 10 8 10 11 0 2-4 4-10 4-5 0-10-5-10-11z"/><path d="m2530 10400c13-23 20-26 20-6 0 8-7 16-15 20-13 4-14 2-5-14z"/><path d="m14240 10390c-8-5-12-11-10-14 3-2 14 2 24 10 22 15 10 19-14 4z"/><path d="m2586 10382c-3-5 1-9 9-9s12 4 9 9c-3 4-7 8-9 8s-6-4-9-8z"/><path d="m2575 10350c3-5 8-10 11-10 2 0 4 5 4 10 0 6-5 10-11 10-5 0-7-4-4-10z"/><path d="m10355 10330c-3-5 0-12 6-16 8-5 9-3 4 6-6 10-4 12 8 7 9-3 18-3 21 1s-4 8-14 9c-11 1-22-2-25-7z"/><path d="m14116 10264c-24-24-19-30 7-8 12 10 24 20 26 21 2 2-1 3-7 3s-18-7-26-16z"/><path d="m2797 10156c-10-8-14-16-10-19 5-3 14 3 21 14 14 22 13 23-11 5z"/><path d="m14005 10111c-3-5-1-12 5-16 5-3 10 1 10 9 0 18-6 21-15 7z"/><path d="m1387 10045c-12-11-16-12-20-2-2 6-7 9-11 6s0-11 7-18c11-8 18-6 32 9 21 23 14 27-8 5z"/><path d="m2896 10035c25-19 40-19 20 0-8 8-20 15-27 15s-4-6 7-15z"/><path d="m2946 10018c3-5 10-6 15-3 13 9 11 12-6 12-8 0-12-4-9-9z"/><path d="m1281 9954c-7-8-11-17-9-20 3-2 13 5 23 16s14 20 9 20c-5-1-15-8-23-16z"/><path d="m13777 9882c-16-17-17-21-5-17 9 4 19 13 22 21 3 9 10 12 16 9 5-3 18-2 27 4 14 7 12 9-10 8-16-1-38-12-50-25z"/><path d="m1170 9839c0-5 5-7 10-4 6 3 10 8 10 11 0 2-4 4-10 4-5 0-10-5-10-11z"/><path d="m3146 9791c-4-5-2-12 3-15 5-4 12-2 15 3 4 5 2 12-3 15-5 4-12 2-15-3z"/><path d="m3226 9711c-4-5 3-7 14-4 23 6 26 13 6 13-8 0-17-4-20-9z"/><path d="m9710 9649c0-6-6-9-13-6-8 3-14-1-14-8 0-10 5-11 18-4 22 11 34 29 20 29-6 0-11-5-11-11z"/><path d="m928 9613c6-2 9-10 6-15-4-7-2-8 5-4 13 9 5 26-12 25-9 0-8-2 1-6z"/><path d="m3420 9519c0-5 5-7 10-4 6 3 10 8 10 11 0 2-4 4-10 4-5 0-10-5-10-11z"/><path d="m13416 9522c-3-4 4-9 15-9 23-2 25 3 4 10-8 4-16 3-19-1z"/><path d="m832 9511c2-5-6-17-17-26-20-16-20-16 2-5 27 13 36 27 23 35-6 4-9 2-8-4z"/><path d="m771 9463c4-21-2-34-13-27-7 4-8 3-4-4 10-16 14-15 26 7 7 14 7 22 0 26-6 4-10 3-9-2z"/><path d="m9330 9279c0-5 5-7 10-4 6 3 10 8 10 11 0 2-4 4-10 4-5 0-10-5-10-11z"/><path d="m9164 9121c4-5 0-11-6-14-7-3-3-4 9-4 17 1 19 4 11 14-12 15-22 18-14 4z"/><path d="m3870 9066c0-2 8-10 18-17 15-13 16-12 3 4s-21 21-21 13z"/><path d="m9055 9029c-4-6-5-12-2-15 2-3 7 2 10 11 7 17 1 20-8 4z"/><path d="m12905 9011c-3-5-2-12 3-15s9 1 9 9c0 17-3 19-12 6z"/><path d="m235 8920c-3-5-1-10 4-10 6 0 11 5 11 10 0 6-2 10-4 10-3 0-8-4-11-10z"/><path d="m8970 8922c0-5 7-9 15-9s12 4 9 9c-3 4-9 8-15 8-5 0-9-4-9-8z"/><path d="m8935 8900c-3-5-1-10 4-10 6 0 11 5 11 10 0 6-2 10-4 10-3 0-8-4-11-10z"/><path d="m8920 8870c-12-7-10-9 7-7 12 0 19 5 17 9-6 10-6 10-24-2z"/><path d="m4110 8803c0-1 9-7 20-13 16-8 20-8 20 4 0 9-8 14-20 13-11-1-20-2-20-4z"/><path d="m8725 8700c-16-7-17-9-3-9 9-1 20 4 23 9 7 11 7 11-20 0z"/><path d="m4284 8659c-4-7-3-9 4-5 5 3 13 0 15-6 4-9 6-10 6-1 1 17-16 25-25 12z"/><path d="m12405 8500c-3-5-1-10 4-10 6 0 11 5 11 10 0 6-2 10-4 10-3 0-8-4-11-10z"/><path d="m375 8430c-3-6 1-7 9-4 18 7 21 14 7 14-6 0-13-4-16-10z"/><path d="m12315 8420c-3-5-1-10 4-10 6 0 11 5 11 10 0 6-2 10-4 10-3 0-8-4-11-10z"/><path d="m433 8403c4-3 1-13-6-22-11-14-10-14 5-2 16 12 16 31 1 31-4 0-3-3 0-7z"/><path d="m8417 8375c-4-8-3-16 1-19s9 4 9 15c2 23-3 25-10 4z"/><path d="m4650 8320c0-5 5-10 11-10 5 0 7 5 4 10-3 6-8 10-11 10-2 0-4-4-4-10z"/><path d="m8280 8196c0-2 7-7 16-10 8-3 12-2 9 4-6 10-25 14-25 6z"/><path d="m12085 8190c-3-5-1-10 4-10 6 0 11 5 11 10 0 6-2 10-4 10-3 0-8-4-11-10z"/><path d="m8248 8142c4-11 1-13-8-7-9 5-11 4-6-3 10-16 14-15 25 6 7 14 6 19-4 19-7 0-11-7-7-15z"/><path d="m8204 8108c3-10 1-18-4-18-6 0-10-4-10-10 0-5 4-10 9-10 14 0 20 26 9 41-8 11-9 10-4-3z"/><path d="m778 8053c10-4 10-8 0-21-12-15-11-16 4-3 19 14 15 32-5 30-8 0-8-2 1-6z"/><path d="m8130 8009c0-6-7-8-17-5-10 4-14 4-10 0s-1-13-11-21c-12-10-9-10 15 1 33 17 52 36 34 36-6 0-11-5-11-11z"/><path d="m11895 8001c-3-5-2-12 3-15s9 1 9 9c0 17-3 19-12 6z"/><path d="m8055 7960c-3-5-1-10 4-10 6 0 11 5 11 10 0 6-2 10-4 10-3 0-8-4-11-10z"/><path d="m920 7918c0-10 40-51 45-46 3 2-6 15-20 28s-25 21-25 18z"/><path d="m7866 7754c-5-14-9-14-24-3-15 13-16 12-3-3 12-17 9-23-12-19-5 1-5-4-2-10 5-7 16-2 33 15 14 14 23 28 20 31s-8-2-12-11z"/><path d="m1075 7740c-3-6 1-7 10-4 10 4 14 1 12-7s-2-11 0-7c3 5 14 3 26-3 19-9 18-7-3 10-28 23-36 25-45 11z"/><path d="m11645 7741c-3-5-2-12 3-15s9 1 9 9c0 17-3 19-12 6z"/><path d="m1113 7695c0-8 4-12 9-9s6 10 3 15c-9 13-12 11-12-6z"/><path d="m11526 7621c-3-5 1-14 8-20 10-9 16-9 21-1 4 6 3 10-2 9-20-3-27 2-13 11 9 6 10 10 3 10-6 0-14-4-17-9z"/><path d="m1310 7520c0-5 5-10 10-10 6 0 10 5 10 10 0 6-4 10-10 10-5 0-10-4-10-10z"/><path d="m11360 7450c-8-5-10-10-5-10 6 0 17 5 25 10s11 10 5 10c-5 0-17-5-25-10z"/><path d="m7536 7433c-6-14-5-15 5-6 7 7 10 15 7 18s-9-2-12-12z"/><path d="m1461 7354c0-11 3-14 6-6 3 7 2 16-1 19-3 4-6-2-5-13z"/><path d="m7480 7359c0-5 5-7 10-4 6 3 10 8 10 11 0 2-4 4-10 4-5 0-10-5-10-11z"/><path d="m11250 7345c-9-10-9-15-1-15 6 0 11 5 11 11 0 8 4 8 14 0 11-9 16-9 22 1 4 7 4 10-1 6-4-4-14-3-20 2-9 7-16 6-25-5z"/><path d="m5590 7338c0-4 4-8 9-8 6 0 12 4 15 8 3 5-1 9-9 9s-15-4-15-9z"/><path d="m7415 7320c-3-5-1-10 4-10 6 0 11 5 11 10 0 6-2 10-4 10-3 0-8-4-11-10z"/><path d="m11205 7290c-3-6 1-7 9-4 18 7 21 14 7 14-6 0-13-4-16-10z"/><path d="m5670 7279c0-5 5-7 10-4 6 3 10 8 10 11 0 2-4 4-10 4-5 0-10-5-10-11z"/><path d="m7237 7125c3-8 9-12 14-9 12 7 11 11-5 17-10 4-13 1-9-8z"/><path d="m7206 7122c-3-5 1-9 9-9s12 4 9 9c-3 4-7 8-9 8s-6-4-9-8z"/><path d="m1708 7103c7-3 16-2 19 1 4 3-2 6-13 5-11 0-14-3-6-6z"/><path d="m5830 7101c0-6 5-13 10-16 6-3 10 1 10 9 0 9-4 16-10 16-5 0-10-4-10-9z"/><path d="m1716 7082c-3-5 1-9 9-9s12 4 9 9c-3 4-7 8-9 8s-6-4-9-8z"/><path d="m1753 7055c0-8 4-12 9-9s6 10 3 15c-9 13-12 11-12-6z"/><path d="m7090 6982c0-6-8-9-17-6-15 5-16 4-3-5 16-11 40 3 27 16-4 3-7 1-7-5z"/><path d="m1830 6976c0-2 8-10 18-17 15-13 16-12 3 4s-21 21-21 13z"/><path d="m5985 6940c3-5 10-10 16-10 5 0 9 5 9 10 0 6-7 10-16 10-8 0-12-4-9-10z"/><path d="m2063 6763c-3-10-8-22-11-27s0-6 5-3c11 7 25 47 17 47-3 0-7-8-11-17z"/><path d="m6864 6762c3-5 0-13-6-15-9-4-10-6-1-6 17-1 25 16 12 25-7 4-9 3-5-4z"/><path d="m6202 6741c-10-6-10-10 3-21 8-7 19-9 23-5s1 10-6 12c-6 3-10 9-6 14 6 11 3 11-14 0z"/><path d="m2113 6714c0-18 2-22 8-13 8 14 10 12 13-13 0-6 9-12 20-14 15-2 13 3-10 29-16 18-30 33-30 35-1 1-1-9-1-24z"/><path d="m6816 6712c-2-4-1-14 3-21 6-9 11-10 15-2 4 6 2 11-4 11s-8 5-5 10c3 6 4 10 1 10s-7-4-10-8z"/><path d="m2188 6623c7-3 16-2 19 1 4 3-2 6-13 5-11 0-14-3-6-6z"/><path d="m6697 6597c-7-19 8-43 17-28 4 6 3 11-3 11s-8 7-5 15c4 8 4 15 1 15s-7-6-10-13z"/><path d="m10441 6535c0-5 3-16 8-23 7-11 9-10 14 3 4 9 3 14-2 10-5-3-12 1-14 7-3 7-6 9-6 3z"/><path d="m6470 6486c0-2 7-7 16-10 8-3 12-2 9 4-6 10-25 14-25 6z"/><path d="m10356 6445c-3-8-1-15 4-15 6 0 10 7 10 15s-2 15-4 15-6-7-10-15z"/><path d="m6510 6441c0-6 4-13 10-16s7 1 4 9c-7 18-14 21-14 7z"/><path d="m2390 6428c-12-8-12-9 2-5 9 3 19 1 22-6 3-9 5-9 5 0 1 18-13 23-29 11z"/><path d="m2459 6358c-11-8-11-9 3-4 10 3 21-1 26-11 5-8 14-14 20-12 5 2 0 11-12 21-16 12-27 13-37 6z"/><path d="m2530 6304c0-7 27-34 34-34 13 0 5 16-14 28-11 7-20 10-20 6z"/><path d="m2775 6020c-3-6 1-7 9-4 18 7 21 14 7 14-6 0-13-4-16-10z"/><path d="m9910 5979c0-5 5-7 10-4 6 3 10 8 10 11 0 2-4 4-10 4-5 0-10-5-10-11z"/><path d="m9865 5950c-3-5 1-10 10-10s13 5 10 10c-3 6-8 10-10 10s-7-4-10-10z"/><path d="m2910 5919c0-5 5-7 10-4 6 3 10 8 10 11 0 2-4 4-10 4-5 0-10-5-10-11z"/><path d="m2960 5870c-8-5-10-10-5-10 6 0 17 5 25 10s11 10 5 10c-5 0-17-5-25-10z"/><path d="m9767 5849c7-7 15-10 18-7s-2 9-12 12c-14 6-15 5-6-5z"/><path d="m3026 5803c-6-14-5-15 5-6 7 7 10 15 7 18s-9-2-12-12z"/><path d="m3036 5782c-3-5 1-9 9-9s12 4 9 9c-3 4-7 8-9 8s-6-4-9-8z"/><path d="m3083 5747c0-8 6-14 14-14 9 0 10 4 2 14-6 7-12 13-14 13-1 0-2-6-2-13z"/><path d="m9621 5706c-10-11-9-14 1-12 14 2 23 15 15 22-2 2-10-2-16-10z"/><path d="m3130 5700c0-5 5-10 11-10 5 0 7 5 4 10-3 6-8 10-11 10-2 0-4-4-4-10z"/><path d="m3211 5604c0-11 3-14 6-6 3 7 2 16-1 19-3 4-6-2-5-13z"/><path d="m3273 5563c4-3-1-12-11-20-15-13-15-13 4-4 12 6 25 7 30 3s2 1-5 11c-7 9-16 17-19 17s-2-3 1-7z"/><path d="m9386 5472c-2-4-1-14 3-21 6-10 10-9 14 3 6 16-8 32-17 18z"/><path d="m9347 5419c7-7 15-10 18-7s-2 9-12 12c-14 6-15 5-6-5z"/><path d="m3467 5346c-4-10-1-13 8-9 8 3 12 9 9 14-7 12-11 11-17-5z"/><path d="m3480 5320c-12-7-10-9 7-7 12 0 19 5 17 9-6 10-6 10-24-2z"/><path d="m9160 5256c0-2 7-9 15-16 9-7 15-8 15-2 0 5-7 12-15 16-8 3-15 4-15 2z"/><path d="m3650 5146c0-2 7-7 16-10 8-3 12-2 9 4-6 10-25 14-25 6z"/><path d="m3755 5040c3-5 8-10 11-10 2 0 4 5 4 10 0 6-5 10-11 10-5 0-7-4-4-10z"/><path d="m3810 5020c0-5 5-10 11-10 5 0 7 5 4 10-3 6-8 10-11 10-2 0-4-4-4-10z"/><path d="m3840 4970c-9-6-10-10-3-10 6 0 15 5 18 10 8 12 4 12-15 0z"/><path d="m8906 4963c-6-14-5-15 5-6 7 7 10 15 7 18s-9-2-12-12z"/><path d="m8877 4958c-7-20-7-28 0-30 3-2 8 7 9 20 4 24-1 30-9 10z"/><path d="m3915 4900c3-5 8-10 11-10 2 0 4 5 4 10 0 6-5 10-11 10-5 0-7-4-4-10z"/><path d="m8730 4779c0-5 5-7 10-4 6 3 10 8 10 11 0 2-4 4-10 4-5 0-10-5-10-11z"/><path d="m8552 4629c-7-11-18-17-24-13s-8 3-4-4c3-5-6-19-20-30-23-16-24-20-10-25 9-4 15-3 12 2-7 10 18 33 27 26 4-3 5-2 2 2-3 3 5 17 17 30 12 12 19 25 17 28-3 2-10-5-17-16z"/><path d="m4200 4610c-9-6-10-10-3-10 6 0 15 5 18 10 8 12 4 12-15 0z"/><path d="m4344 4468c-4-6-3-8 3-5 11 7 37-16 28-25-3-2 2-5 10-5 12 0 10 6-7 24-25 27-25 27-34 11z"/><path d="m4573 4252c0-12 5-22 9-22 11 0 10 12-2 30-7 12-9 10-7-8z"/><path d="m8217 4239c-9-6-15-14-12-20 9-13 25-11 23 4-2 6 3 11 10 9 8-1 11 2 7 8-7 12-6 12-28-1z"/><path d="m4736 4061c-4-5 3-7 14-4 23 6 26 13 6 13-8 0-17-4-20-9z"/><path d="m8015 4000c-3-6 1-7 9-4 18 7 21 14 7 14-6 0-13-4-16-10z"/><path d="m4850 3962c0-5 7-9 15-9s12 4 9 9c-3 4-9 8-15 8-5 0-9-4-9-8z"/><path d="m7881 3884c0-11 3-14 6-6 3 7 2 16-1 19-3 4-6-2-5-13z"/><path d="m7834 3849c-3-6-1-16 5-22 9-9 10-7 5 7-6 15-4 17 6 11 9-5 11-4 6 3-9 15-13 15-22 1z"/><path d="m4954 3842c4-3 14-7 22-8 9-1 13 0 10 4-4 3-14 7-22 8-9 1-13 0-10-4z"/><path d="m7790 3800c0-5 5-10 11-10 5 0 7 5 4 10-3 6-8 10-11 10-2 0-4-4-4-10z"/><path d="m7693 3708c-10-11-12-18-4-18 6 0 14 7 17 15 4 8 10 13 14 10 5-3 11-2 14 3 10 17-24 8-41-10z"/><path d="m5256 3566c7-19 20-21 30-3 4 6 4 9-1 5-4-4-14-3-22 4-11 8-12 7-7-6z"/><path d="m7521 3541c-8-15-8-22 1-27 7-4 10-4 6 1-4 4-3 14 4 22 6 7 8 16 5 19s-10-3-16-15z"/><path d="m5344 3488c-4-6 0-16 9-23s13-16 9-20c-4-5-1-5 7 0 8 4 17 2 22-6 4-7 11-10 15-7 4 4-7 15-25 25-17 10-29 24-26 31 6 15-1 16-11 0z"/><path d="m7401 3404c0-11 3-14 6-6 3 7 2 16-1 19-3 4-6-2-5-13z"/><path d="m5427 3386c-4-10-1-13 8-9 8 3 12 9 9 14-7 12-11 11-17-5z"/><path d="m7335 3357c-10-8-14-17-9-20 6-3 15 3 22 14 14 23 12 24-13 6z"/><path d="m5483 3323c12-3 16-10 12-21-5-13-3-14 6-5 14 14 3 33-19 32-15-1-14-2 1-6z"/><path d="m5615 3181c-3-6 0-8 9-5 8 3 16-1 19-10 4-14 5-14 3 0-1 20-21 30-31 15z"/><path d="m5690 3145c0-8 4-15 10-15 5 0 7 7 4 15-4 8-8 15-10 15s-4-7-4-15z"/><path d="m7041 3061c-8-15-8-22 1-27 7-4 10-4 6 1-4 4-3 14 4 22 6 7 8 16 5 19s-10-3-16-15z"/><path d="m5910 2886c0-2 7-7 16-10 8-3 12-2 9 4-6 10-25 14-25 6z"/><path d="m5970 2860c0-5 5-10 11-10 5 0 7 5 4 10-3 6-8 10-11 10-2 0-4-4-4-10z"/><path d="m6731 2746c-8-10-9-16-1-21 6-3 8-11 5-16-10-15 2-10 16 8 8 10 9 14 2 10-6-4-14-3-18 2-3 5 3 14 12 20 10 6 13 11 7 11s-17-6-23-14z"/><path d="m6146 2685c4-8 11-15 16-15 6 0 5 6-2 15-7 8-14 15-16 15s-1-7 2-15z"/><path d="m6210 2620c0-5 5-10 11-10 5 0 7 5 4 10-3 6-8 10-11 10-2 0-4-4-4-10z"/></g></svg>