<svg height="75" viewBox="0 0 200 75" width="200" xmlns="http://www.w3.org/2000/svg"><path d="m76.51 44.43c-.4-.53-.08-1.07 0-1.58.87-5 .29-9.77-2.61-14.07-.26-.39-.32-.65.06-1 .39.11.59.46.85.72 4.62 4.61 9.23 9.21 13.82 13.85.55.55.83.61 1.41 0 8.23-8.55 16.66-16.9 25-25.35.65-.66 1-.71 1.64 0 1.69 1.8 3.46 3.53 5.24 5.24.45.43.38.7 0 1.06-2.41 2.34-4.74 4.74-7.06 7.17-3.78 3.94-7.69 7.76-11.54 11.63-.24.24-.46.5-.69.75-2.33 2.3-4.69 4.58-6.89 7s-4.35 4.38-6.51 6.58c-.42.42-.58 0-.8-.17l-5.53-5.53z" fill="#005694"/><path d="m195 54.16a6.6 6.6 0 1 1 -6.62-6.62 6.66 6.66 0 0 1 6.62 6.62z" fill="#f1c638"/><path d="m45.53 54.26-.15-.86c.33 0 .43.21.58.4z" fill="#f6e096"/><g fill="#f1c638"><path d="m178.56 39.78a21.22 21.22 0 0 0 -5.49-12.29 16.38 16.38 0 0 0 -12.22-6c-6-.16-11.09 2.14-15.48 6.13a22.4 22.4 0 0 0 -2.85 3.3 2.62 2.62 0 0 1 0-1.25c.6-4.66 1.17-9.32 1.8-14 .11-.81-.19-1-.9-1.05-2.42-.26-4.83-.55-7.24-.9-2.78-.4-2.72-.42-3.05 2.3-.6 5-1.27 10-1.92 15.08-.36-.12-.34-.44-.43-.67a10.84 10.84 0 0 0 -2.78-4.02 13.37 13.37 0 0 0 -6-3.07c-.57-.05-.82.43-1.15.75-4.11 4-7.93 8.27-12 12.26-1.85 1.79-3.65 3.63-5.46 5.46-.29.3-.75.53-.62 1.08s.07 1.17.12 1.75c.53 6.1 2.88 11.16 8.7 13.81 5 2.26 9.91 2.28 14.43-1.3a19.24 19.24 0 0 0 2.29-2.61c-.25 2-.45 3.79-.72 5.58-.08.55 0 .71.58.78 3.19.38 6.39.79 9.58 1.23.63.08.78-.15.84-.69.19-1.74.42-3.47.64-5.21q.65-5 1.29-10.06c.32.15.34.41.42.63a23.1 23.1 0 0 0 4.06 7c4.28 5 9.71 7.25 16.23 6.15a21.46 21.46 0 0 0 14.37-8.79 16.43 16.43 0 0 0 2.96-11.38zm-48.71 1.82c-.16 3-.89 5.72-3.41 7.6a7.7 7.7 0 0 1 -8.36.63 7 7 0 0 1 -4.08-6.45c-.16-3 .38-5.92 2.65-8.16s5-2.48 7.94-1.59a7.14 7.14 0 0 1 5.05 5.71 7.14 7.14 0 0 1 .21 2.26zm32.57 7.7a7.36 7.36 0 0 1 -7.92-1.92 13.05 13.05 0 0 1 -3.5-6.87 7.39 7.39 0 0 1 3.69-7.65 7.23 7.23 0 0 1 8.28.71 12.38 12.38 0 0 1 4.4 8.17 7.55 7.55 0 0 1 -4.95 7.56z"/><path d="m74.33 28.88a1.63 1.63 0 0 1 -.33-1.05 16.19 16.19 0 0 0 -4.42-4.11 21 21 0 0 0 -10.31-3.15 18.36 18.36 0 0 0 -10.42 2.21c-7.5 4.26-10 12.15-9.21 19.8.08.84.63 1.88.3 2.46s-1.47.9-2.27 1.28c-2.92 1.37-4.26.9-5.74-2l-.1-.18c-2-4.16-4-8.34-6.1-12.49-.35-.7-.13-.91.47-1.2 1.93-.9 3.82-1.87 5.75-2.78.49-.24.67-.43.39-1-1.32-2.64-2.62-5.29-3.87-8-.32-.67-.63-.63-1.18-.35-1.87.94-3.78 1.81-5.64 2.77-.64.33-.92.23-1.22-.42-1.15-2.45-2.38-4.87-3.53-7.33-.29-.62-.56-.69-1.16-.39q-4.74 2.41-9.48 4.66c-.67.32-.83.6-.47 1.3 1.23 2.42 2.37 4.88 3.59 7.3.27.55.26.81-.36 1.08-1.19.52-2.34 1.14-3.52 1.7-.44.2-.65.37-.38.91 1.35 2.71 2.66 5.42 4 8.15.24.52.48.54.94.3 1.1-.57 2.24-1.05 3.33-1.64.67-.36 1-.34 1.35.43 1.42 3 2.91 6.07 4.39 9.09a61.59 61.59 0 0 0 3.29 6.29c3.54 5.53 8.3 7.33 14.6 5.53 3-.87 5.74-2.46 8.55-3.79.19-.11-.05-.63.43-.46s.83.6 1.27.88a21 21 0 0 0 10.09 3.16 18.36 18.36 0 0 0 11-2.4 17.73 17.73 0 0 0 8.21-11 7.18 7.18 0 0 0 .33-1.71c.72-4.91.26-9.6-2.57-13.85zm-9.53 14.53a6.26 6.26 0 0 1 -5.8 4.4 7 7 0 0 1 -6.75-3.35 8.87 8.87 0 0 1 -1.19-5.16 10.46 10.46 0 0 1 2.1-6.41 6.6 6.6 0 0 1 7.48-2 6.81 6.81 0 0 1 4.85 5.72 13 13 0 0 1 -.69 6.8z"/></g></svg>